<svg xmlns="http://www.w3.org/2000/svg" xmlns:xlink="http://www.w3.org/1999/xlink" width="120" zoomAndPan="magnify" viewBox="0 0 90 30.000001" height="40" preserveAspectRatio="xMidYMid meet" version="1.2"><defs><clipPath id="1abfba6dd4"><path d="M 1.453125 0 L 88.546875 0 L 88.546875 29.03125 L 1.453125 29.03125 Z M 1.453125 0 "/></clipPath><clipPath id="a8cb2ac9c7"><path d="M 58.195312 3 L 66.695312 3 L 66.695312 11.535156 L 58.195312 11.535156 Z M 58.195312 3 "/></clipPath><clipPath id="16d01a8ff1"><path d="M 60.414062 4.375 L 64.769531 4.375 L 64.769531 10 L 60.414062 10 Z M 60.414062 4.375 "/></clipPath></defs><g id="70712d7f16"><g clip-rule="nonzero" clip-path="url(#1abfba6dd4)"><path style=" stroke:none;fill-rule:nonzero;fill:#ffffff;fill-opacity:1;" d="M 1.453125 0 L 88.546875 0 L 88.546875 29.03125 L 1.453125 29.03125 Z M 1.453125 0 "/><path style=" stroke:none;fill-rule:nonzero;fill:#0e004c;fill-opacity:1;" d="M 1.453125 0 L 88.546875 0 L 88.546875 29.03125 L 1.453125 29.03125 Z M 1.453125 0 "/></g><g style="fill:#ffffff;fill-opacity:1;"><g transform="translate(35.235177, 19.048988)"><path style="stroke:none" d="M 3.875 -7.046875 C 4.5625 -7.046875 5.164062 -6.90625 5.6875 -6.625 C 6.207031 -6.351562 6.609375 -5.953125 6.890625 -5.421875 C 7.179688 -4.898438 7.328125 -4.265625 7.328125 -3.515625 C 7.328125 -2.785156 7.179688 -2.144531 6.890625 -1.59375 C 6.597656 -1.050781 6.1875 -0.625 5.65625 -0.3125 C 5.132812 -0.0078125 4.539062 0.140625 3.875 0.140625 C 3.175781 0.140625 2.566406 0 2.046875 -0.28125 C 1.535156 -0.5625 1.132812 -0.960938 0.84375 -1.484375 C 0.5625 -2.015625 0.421875 -2.65625 0.421875 -3.40625 C 0.421875 -4.132812 0.566406 -4.769531 0.859375 -5.3125 C 1.160156 -5.863281 1.566406 -6.289062 2.078125 -6.59375 C 2.597656 -6.894531 3.195312 -7.046875 3.875 -7.046875 Z M 3.84375 -6.875 C 3.476562 -6.875 3.160156 -6.726562 2.890625 -6.4375 C 2.617188 -6.144531 2.410156 -5.738281 2.265625 -5.21875 C 2.117188 -4.707031 2.046875 -4.113281 2.046875 -3.4375 C 2.046875 -2.75 2.128906 -2.148438 2.296875 -1.640625 C 2.460938 -1.128906 2.6875 -0.734375 2.96875 -0.453125 C 3.25 -0.179688 3.5625 -0.046875 3.90625 -0.046875 C 4.269531 -0.046875 4.585938 -0.191406 4.859375 -0.484375 C 5.128906 -0.773438 5.335938 -1.175781 5.484375 -1.6875 C 5.628906 -2.207031 5.703125 -2.804688 5.703125 -3.484375 C 5.703125 -4.171875 5.617188 -4.769531 5.453125 -5.28125 C 5.285156 -5.789062 5.0625 -6.179688 4.78125 -6.453125 C 4.5 -6.734375 4.1875 -6.875 3.84375 -6.875 Z M 3.84375 -6.875 "/></g></g><g style="fill:#ffffff;fill-opacity:1;"><g transform="translate(44.365723, 19.048988)"><path style="stroke:none" d="M 3.40625 -6.921875 L 3.40625 -6.71875 C 3.1875 -6.707031 3.019531 -6.679688 2.90625 -6.640625 C 2.789062 -6.597656 2.710938 -6.519531 2.671875 -6.40625 C 2.640625 -6.289062 2.625 -6.113281 2.625 -5.875 L 2.625 -0.921875 C 2.625 -0.710938 2.632812 -0.5625 2.65625 -0.46875 C 2.6875 -0.375 2.742188 -0.304688 2.828125 -0.265625 C 2.921875 -0.234375 3.054688 -0.21875 3.234375 -0.21875 L 3.71875 -0.21875 C 3.9375 -0.21875 4.140625 -0.269531 4.328125 -0.375 C 4.523438 -0.476562 4.703125 -0.625 4.859375 -0.8125 C 5.015625 -1.007812 5.144531 -1.242188 5.25 -1.515625 C 5.351562 -1.785156 5.429688 -2.082031 5.484375 -2.40625 L 5.71875 -2.40625 C 5.695312 -2.1875 5.6875 -1.898438 5.6875 -1.546875 C 5.6875 -1.390625 5.6875 -1.164062 5.6875 -0.875 C 5.695312 -0.59375 5.71875 -0.300781 5.75 0 C 5.414062 -0.0078125 5.039062 -0.015625 4.625 -0.015625 C 4.207031 -0.0234375 3.835938 -0.03125 3.515625 -0.03125 C 3.347656 -0.03125 3.140625 -0.03125 2.890625 -0.03125 C 2.640625 -0.03125 2.363281 -0.0234375 2.0625 -0.015625 C 1.769531 -0.015625 1.472656 -0.015625 1.171875 -0.015625 C 0.878906 -0.015625 0.597656 -0.0078125 0.328125 0 L 0.328125 -0.203125 C 0.535156 -0.210938 0.691406 -0.234375 0.796875 -0.265625 C 0.898438 -0.304688 0.96875 -0.382812 1 -0.5 C 1.039062 -0.625 1.0625 -0.800781 1.0625 -1.03125 L 1.0625 -5.875 C 1.0625 -6.113281 1.039062 -6.289062 1 -6.40625 C 0.96875 -6.519531 0.898438 -6.597656 0.796875 -6.640625 C 0.691406 -6.679688 0.535156 -6.707031 0.328125 -6.71875 L 0.328125 -6.921875 C 0.492188 -6.910156 0.710938 -6.898438 0.984375 -6.890625 C 1.265625 -6.890625 1.5625 -6.890625 1.875 -6.890625 C 2.164062 -6.890625 2.445312 -6.890625 2.71875 -6.890625 C 3 -6.898438 3.226562 -6.910156 3.40625 -6.921875 Z M 3.40625 -6.921875 "/></g></g><g style="fill:#ffffff;fill-opacity:1;"><g transform="translate(50.996366, 19.048988)"><path style="stroke:none" d="M 6.625 -6.921875 L 6.625 -6.71875 C 6.476562 -6.664062 6.320312 -6.550781 6.15625 -6.375 C 6 -6.195312 5.851562 -5.925781 5.71875 -5.5625 L 3.65625 0.015625 C 3.601562 0.015625 3.546875 0.015625 3.484375 0.015625 C 3.429688 0.015625 3.378906 0.015625 3.328125 0.015625 C 3.273438 0.015625 3.21875 0.015625 3.15625 0.015625 C 3.09375 0.015625 3.035156 0.015625 2.984375 0.015625 L 0.5 -6.09375 C 0.40625 -6.332031 0.300781 -6.492188 0.1875 -6.578125 C 0.0820312 -6.660156 -0.0195312 -6.707031 -0.125 -6.71875 L -0.125 -6.921875 C 0.0703125 -6.910156 0.300781 -6.898438 0.5625 -6.890625 C 0.832031 -6.890625 1.101562 -6.890625 1.375 -6.890625 C 1.664062 -6.890625 1.941406 -6.890625 2.203125 -6.890625 C 2.472656 -6.898438 2.691406 -6.910156 2.859375 -6.921875 L 2.859375 -6.71875 C 2.648438 -6.707031 2.484375 -6.679688 2.359375 -6.640625 C 2.242188 -6.597656 2.179688 -6.519531 2.171875 -6.40625 C 2.160156 -6.289062 2.195312 -6.125 2.28125 -5.90625 L 4.0625 -1.375 L 3.859375 -1.140625 L 5.203125 -4.765625 C 5.378906 -5.253906 5.46875 -5.640625 5.46875 -5.921875 C 5.476562 -6.203125 5.410156 -6.398438 5.265625 -6.515625 C 5.128906 -6.640625 4.925781 -6.707031 4.65625 -6.71875 L 4.65625 -6.921875 C 4.875 -6.910156 5.082031 -6.898438 5.28125 -6.890625 C 5.476562 -6.890625 5.675781 -6.890625 5.875 -6.890625 C 6.019531 -6.890625 6.15625 -6.890625 6.28125 -6.890625 C 6.40625 -6.898438 6.519531 -6.910156 6.625 -6.921875 Z M 6.625 -6.921875 "/></g></g><g style="fill:#ffffff;fill-opacity:1;"><g transform="translate(58.369165, 19.048988)"><path style="stroke:none" d="M 1.3125 -1.375 C 1.570312 -1.375 1.773438 -1.304688 1.921875 -1.171875 C 2.078125 -1.035156 2.15625 -0.847656 2.15625 -0.609375 C 2.15625 -0.378906 2.078125 -0.195312 1.921875 -0.0625 C 1.773438 0.0703125 1.570312 0.140625 1.3125 0.140625 C 1.0625 0.140625 0.859375 0.0703125 0.703125 -0.0625 C 0.554688 -0.195312 0.484375 -0.378906 0.484375 -0.609375 C 0.484375 -0.847656 0.554688 -1.035156 0.703125 -1.171875 C 0.859375 -1.304688 1.0625 -1.375 1.3125 -1.375 Z M 1.3125 -1.375 "/></g></g><g style="fill:#ffffff;fill-opacity:1;"><g transform="translate(25.971309, 19.227934)"><path style="stroke:none" d="M 4.109375 -10.4375 C 4.679688 -10.4375 5.117188 -10.375 5.421875 -10.25 C 5.734375 -10.125 6 -10 6.21875 -9.875 C 6.332031 -9.800781 6.425781 -9.75 6.5 -9.71875 C 6.570312 -9.6875 6.644531 -9.671875 6.71875 -9.671875 C 6.8125 -9.671875 6.878906 -9.722656 6.921875 -9.828125 C 6.960938 -9.929688 7 -10.085938 7.03125 -10.296875 L 7.359375 -10.296875 C 7.347656 -10.117188 7.335938 -9.898438 7.328125 -9.640625 C 7.316406 -9.390625 7.304688 -9.054688 7.296875 -8.640625 C 7.296875 -8.222656 7.296875 -7.675781 7.296875 -7 L 6.953125 -7 C 6.921875 -7.5 6.804688 -7.984375 6.609375 -8.453125 C 6.421875 -8.929688 6.148438 -9.320312 5.796875 -9.625 C 5.441406 -9.925781 5.007812 -10.078125 4.5 -10.078125 C 4.039062 -10.078125 3.660156 -9.945312 3.359375 -9.6875 C 3.054688 -9.425781 2.90625 -9.066406 2.90625 -8.609375 C 2.90625 -8.222656 3 -7.890625 3.1875 -7.609375 C 3.382812 -7.335938 3.664062 -7.070312 4.03125 -6.8125 C 4.40625 -6.550781 4.859375 -6.238281 5.390625 -5.875 C 5.859375 -5.570312 6.273438 -5.269531 6.640625 -4.96875 C 7.003906 -4.675781 7.296875 -4.34375 7.515625 -3.96875 C 7.742188 -3.59375 7.859375 -3.144531 7.859375 -2.625 C 7.859375 -1.976562 7.691406 -1.445312 7.359375 -1.03125 C 7.023438 -0.625 6.585938 -0.316406 6.046875 -0.109375 C 5.503906 0.0976562 4.910156 0.203125 4.265625 0.203125 C 3.671875 0.203125 3.191406 0.144531 2.828125 0.03125 C 2.472656 -0.0820312 2.175781 -0.203125 1.9375 -0.328125 C 1.726562 -0.460938 1.566406 -0.53125 1.453125 -0.53125 C 1.347656 -0.53125 1.273438 -0.476562 1.234375 -0.375 C 1.191406 -0.269531 1.15625 -0.113281 1.125 0.09375 L 0.796875 0.09375 C 0.816406 -0.132812 0.828125 -0.398438 0.828125 -0.703125 C 0.835938 -1.015625 0.84375 -1.414062 0.84375 -1.90625 C 0.851562 -2.40625 0.859375 -3.039062 0.859375 -3.8125 L 1.1875 -3.8125 C 1.226562 -3.164062 1.335938 -2.566406 1.515625 -2.015625 C 1.691406 -1.460938 1.960938 -1.015625 2.328125 -0.671875 C 2.703125 -0.335938 3.195312 -0.171875 3.8125 -0.171875 C 4.15625 -0.171875 4.457031 -0.226562 4.71875 -0.34375 C 4.988281 -0.46875 5.203125 -0.648438 5.359375 -0.890625 C 5.523438 -1.140625 5.609375 -1.441406 5.609375 -1.796875 C 5.609375 -2.203125 5.515625 -2.550781 5.328125 -2.84375 C 5.140625 -3.144531 4.882812 -3.425781 4.5625 -3.6875 C 4.238281 -3.945312 3.863281 -4.210938 3.4375 -4.484375 C 2.988281 -4.785156 2.566406 -5.082031 2.171875 -5.375 C 1.773438 -5.675781 1.457031 -6.019531 1.21875 -6.40625 C 0.988281 -6.789062 0.875 -7.25 0.875 -7.78125 C 0.875 -8.394531 1.023438 -8.894531 1.328125 -9.28125 C 1.628906 -9.675781 2.023438 -9.96875 2.515625 -10.15625 C 3.015625 -10.34375 3.546875 -10.4375 4.109375 -10.4375 Z M 4.109375 -10.4375 "/></g></g><g clip-rule="nonzero" clip-path="url(#a8cb2ac9c7)"><path style=" stroke:none;fill-rule:nonzero;fill:#ffffff;fill-opacity:1;" d="M 62.417969 11.484375 C 60.089844 11.484375 58.195312 9.589844 58.195312 7.257812 C 58.195312 4.929688 60.089844 3.03125 62.417969 3.03125 C 64.75 3.03125 66.644531 4.929688 66.644531 7.257812 C 66.644531 9.589844 64.75 11.484375 62.417969 11.484375 Z M 62.417969 3.386719 C 60.285156 3.386719 58.546875 5.125 58.546875 7.257812 C 58.546875 9.394531 60.285156 11.132812 62.417969 11.132812 C 64.554688 11.132812 66.292969 9.394531 66.292969 7.257812 C 66.292969 5.125 64.554688 3.386719 62.417969 3.386719 Z M 62.417969 3.386719 "/></g><g style="fill:#ffffff;fill-opacity:1;"><g transform="translate(23.354928, 24.069585)"><path style="stroke:none" d="M 1.78125 0 L 1.09375 0 L 1.09375 -0.03125 C 1.09375 -0.132812 1.132812 -0.191406 1.21875 -0.203125 L 1.3125 -0.203125 L 1.1875 -0.640625 L 0.65625 -0.640625 L 0.53125 -0.203125 L 0.765625 -0.1875 C 0.773438 -0.175781 0.773438 -0.148438 0.765625 -0.109375 C 0.742188 -0.0351562 0.703125 0 0.640625 0 L 0.03125 0 L 0.03125 -0.03125 C 0.03125 -0.132812 0.078125 -0.191406 0.171875 -0.203125 L 0.28125 -0.203125 L 0.84375 -2.03125 C 0.9375 -2.039062 1.039062 -2.039062 1.15625 -2.03125 L 1.703125 -0.203125 L 1.921875 -0.1875 C 1.921875 -0.175781 1.914062 -0.148438 1.90625 -0.109375 C 1.894531 -0.0351562 1.851562 0 1.78125 0 Z M 0.703125 -0.828125 L 1.140625 -0.828125 L 0.921875 -1.578125 Z M 0.703125 -0.828125 "/></g></g><g style="fill:#ffffff;fill-opacity:1;"><g transform="translate(25.310806, 24.069585)"><path style="stroke:none" d="M 0.28125 -2.03125 L 0.96875 -2.03125 C 1.664062 -2.03125 2.015625 -1.695312 2.015625 -1.03125 C 2.015625 -0.695312 1.921875 -0.441406 1.734375 -0.265625 C 1.554688 -0.0859375 1.304688 0 0.984375 0 L 0.125 0 C 0.113281 -0.0507812 0.113281 -0.09375 0.125 -0.125 C 0.144531 -0.164062 0.175781 -0.191406 0.21875 -0.203125 L 0.328125 -0.203125 L 0.328125 -1.828125 L 0.125 -1.84375 C 0.125 -1.90625 0.132812 -1.953125 0.15625 -1.984375 C 0.175781 -2.015625 0.21875 -2.03125 0.28125 -2.03125 Z M 0.890625 -0.203125 C 1.148438 -0.191406 1.335938 -0.25 1.453125 -0.375 C 1.566406 -0.5 1.625 -0.707031 1.625 -1 C 1.625 -1.300781 1.5625 -1.515625 1.4375 -1.640625 C 1.320312 -1.773438 1.132812 -1.835938 0.875 -1.828125 L 0.703125 -1.828125 L 0.703125 -0.21875 Z M 0.890625 -0.203125 "/></g></g><g style="fill:#ffffff;fill-opacity:1;"><g transform="translate(27.420783, 24.069585)"><path style="stroke:none" d="M 1.359375 -2.03125 L 1.921875 -2.03125 C 1.921875 -2.03125 1.921875 -2.023438 1.921875 -2.015625 C 1.921875 -1.898438 1.875 -1.835938 1.78125 -1.828125 L 1.71875 -1.828125 L 1.09375 0 L 0.78125 0 L 0.1875 -1.828125 L 0 -1.84375 C 0 -1.851562 0 -1.878906 0 -1.921875 C 0.0195312 -1.992188 0.0664062 -2.03125 0.140625 -2.03125 L 0.8125 -2.03125 C 0.8125 -1.957031 0.804688 -1.910156 0.796875 -1.890625 C 0.765625 -1.859375 0.726562 -1.835938 0.6875 -1.828125 L 0.59375 -1.828125 L 1.015625 -0.453125 L 1.453125 -1.828125 L 1.21875 -1.84375 C 1.21875 -1.851562 1.21875 -1.878906 1.21875 -1.921875 C 1.238281 -1.992188 1.285156 -2.03125 1.359375 -2.03125 Z M 1.359375 -2.03125 "/></g></g><g style="fill:#ffffff;fill-opacity:1;"><g transform="translate(29.335173, 24.069585)"><path style="stroke:none" d="M 1.015625 -1.84375 C 0.660156 -1.84375 0.484375 -1.570312 0.484375 -1.03125 C 0.484375 -0.757812 0.523438 -0.550781 0.609375 -0.40625 C 0.703125 -0.269531 0.835938 -0.195312 1.015625 -0.1875 C 1.191406 -0.195312 1.328125 -0.269531 1.421875 -0.40625 C 1.515625 -0.539062 1.5625 -0.742188 1.5625 -1.015625 C 1.5625 -1.285156 1.515625 -1.488281 1.421875 -1.625 C 1.328125 -1.769531 1.191406 -1.84375 1.015625 -1.84375 Z M 0.109375 -1 C 0.109375 -1.332031 0.191406 -1.59375 0.359375 -1.78125 C 0.523438 -1.976562 0.753906 -2.078125 1.046875 -2.078125 C 1.335938 -2.078125 1.554688 -1.984375 1.703125 -1.796875 C 1.859375 -1.617188 1.9375 -1.363281 1.9375 -1.03125 C 1.9375 -0.695312 1.847656 -0.429688 1.671875 -0.234375 C 1.503906 -0.046875 1.273438 0.046875 0.984375 0.046875 C 0.703125 0.046875 0.484375 -0.0390625 0.328125 -0.21875 C 0.179688 -0.40625 0.109375 -0.664062 0.109375 -1 Z M 0.109375 -1 "/></g></g><g style="fill:#ffffff;fill-opacity:1;"><g transform="translate(31.376991, 24.069585)"><path style="stroke:none" d="M 1.09375 -2.078125 C 1.269531 -2.078125 1.410156 -2.035156 1.515625 -1.953125 C 1.628906 -1.878906 1.6875 -1.789062 1.6875 -1.6875 C 1.6875 -1.613281 1.65625 -1.550781 1.59375 -1.5 C 1.539062 -1.457031 1.472656 -1.4375 1.390625 -1.4375 C 1.390625 -1.695312 1.28125 -1.828125 1.0625 -1.828125 C 0.882812 -1.828125 0.742188 -1.75 0.640625 -1.59375 C 0.535156 -1.445312 0.484375 -1.25 0.484375 -1 C 0.484375 -0.75 0.53125 -0.554688 0.625 -0.421875 C 0.726562 -0.285156 0.882812 -0.21875 1.09375 -0.21875 C 1.300781 -0.21875 1.488281 -0.28125 1.65625 -0.40625 C 1.6875 -0.382812 1.703125 -0.351562 1.703125 -0.3125 C 1.703125 -0.226562 1.628906 -0.144531 1.484375 -0.0625 C 1.347656 0.0078125 1.179688 0.046875 0.984375 0.046875 C 0.691406 0.046875 0.472656 -0.0390625 0.328125 -0.21875 C 0.179688 -0.40625 0.109375 -0.660156 0.109375 -0.984375 C 0.109375 -1.316406 0.191406 -1.582031 0.359375 -1.78125 C 0.523438 -1.976562 0.769531 -2.078125 1.09375 -2.078125 Z M 1.09375 -2.078125 "/></g></g><g style="fill:#ffffff;fill-opacity:1;"><g transform="translate(33.16099, 24.069585)"><path style="stroke:none" d="M 1.78125 0 L 1.09375 0 L 1.09375 -0.03125 C 1.09375 -0.132812 1.132812 -0.191406 1.21875 -0.203125 L 1.3125 -0.203125 L 1.1875 -0.640625 L 0.65625 -0.640625 L 0.53125 -0.203125 L 0.765625 -0.1875 C 0.773438 -0.175781 0.773438 -0.148438 0.765625 -0.109375 C 0.742188 -0.0351562 0.703125 0 0.640625 0 L 0.03125 0 L 0.03125 -0.03125 C 0.03125 -0.132812 0.078125 -0.191406 0.171875 -0.203125 L 0.28125 -0.203125 L 0.84375 -2.03125 C 0.9375 -2.039062 1.039062 -2.039062 1.15625 -2.03125 L 1.703125 -0.203125 L 1.921875 -0.1875 C 1.921875 -0.175781 1.914062 -0.148438 1.90625 -0.109375 C 1.894531 -0.0351562 1.851562 0 1.78125 0 Z M 0.703125 -0.828125 L 1.140625 -0.828125 L 0.921875 -1.578125 Z M 0.703125 -0.828125 "/></g></g><g style="fill:#ffffff;fill-opacity:1;"><g transform="translate(35.116868, 24.069585)"><path style="stroke:none" d="M 0.0625 -2.03125 L 1.828125 -2.03125 L 1.828125 -1.609375 C 1.828125 -1.566406 1.8125 -1.535156 1.78125 -1.515625 C 1.757812 -1.492188 1.738281 -1.484375 1.71875 -1.484375 C 1.695312 -1.484375 1.671875 -1.484375 1.640625 -1.484375 L 1.609375 -1.8125 L 1.125 -1.8125 L 1.125 -0.203125 L 1.375 -0.1875 C 1.382812 -0.0625 1.335938 0 1.234375 0 L 0.515625 0 C 0.515625 0 0.515625 -0.0078125 0.515625 -0.03125 C 0.515625 -0.132812 0.554688 -0.191406 0.640625 -0.203125 L 0.75 -0.203125 L 0.75 -1.8125 L 0.28125 -1.8125 L 0.25 -1.484375 C 0.21875 -1.484375 0.191406 -1.484375 0.171875 -1.484375 C 0.148438 -1.484375 0.125 -1.492188 0.09375 -1.515625 C 0.0703125 -1.535156 0.0625 -1.566406 0.0625 -1.609375 Z M 0.0625 -2.03125 "/></g></g><g style="fill:#ffffff;fill-opacity:1;"><g transform="translate(37.001623, 24.069585)"><path style="stroke:none" d="M 1.609375 -0.484375 L 1.609375 0 L 0.125 0 C 0.125 -0.125 0.164062 -0.191406 0.25 -0.203125 L 0.328125 -0.203125 L 0.328125 -1.828125 L 0.125 -1.84375 C 0.113281 -1.851562 0.113281 -1.878906 0.125 -1.921875 C 0.144531 -1.992188 0.1875 -2.03125 0.25 -2.03125 L 1.5625 -2.03125 L 1.5625 -1.578125 C 1.5625 -1.492188 1.492188 -1.457031 1.359375 -1.46875 L 1.34375 -1.8125 L 0.703125 -1.828125 L 0.703125 -1.09375 L 1.234375 -1.15625 C 1.253906 -1.0625 1.253906 -0.960938 1.234375 -0.859375 L 0.703125 -0.890625 L 0.703125 -0.203125 L 1.390625 -0.234375 L 1.421875 -0.59375 C 1.546875 -0.613281 1.609375 -0.578125 1.609375 -0.484375 Z M 1.609375 -0.484375 "/></g></g><g style="fill:#ffffff;fill-opacity:1;"><g transform="translate(38.699682, 24.069585)"><path style="stroke:none" d="M 1.3125 -1.9375 C 1.375 -1.875 1.40625 -1.800781 1.40625 -1.71875 C 1.40625 -1.632812 1.378906 -1.566406 1.328125 -1.515625 C 1.273438 -1.472656 1.207031 -1.457031 1.125 -1.46875 C 1.125 -1.726562 1.015625 -1.859375 0.796875 -1.859375 C 0.703125 -1.859375 0.625 -1.832031 0.5625 -1.78125 C 0.5 -1.738281 0.46875 -1.679688 0.46875 -1.609375 C 0.46875 -1.546875 0.484375 -1.5 0.515625 -1.46875 C 0.546875 -1.4375 0.566406 -1.414062 0.578125 -1.40625 C 0.585938 -1.394531 0.613281 -1.378906 0.65625 -1.359375 C 0.695312 -1.335938 0.722656 -1.320312 0.734375 -1.3125 C 0.753906 -1.300781 0.789062 -1.285156 0.84375 -1.265625 C 0.894531 -1.242188 0.929688 -1.226562 0.953125 -1.21875 C 1.148438 -1.132812 1.289062 -1.050781 1.375 -0.96875 C 1.457031 -0.882812 1.5 -0.769531 1.5 -0.625 C 1.5 -0.425781 1.425781 -0.265625 1.28125 -0.140625 C 1.144531 -0.015625 0.957031 0.046875 0.71875 0.046875 C 0.476562 0.046875 0.296875 -0.0078125 0.171875 -0.125 C 0.109375 -0.175781 0.078125 -0.242188 0.078125 -0.328125 C 0.078125 -0.410156 0.101562 -0.472656 0.15625 -0.515625 C 0.207031 -0.566406 0.285156 -0.59375 0.390625 -0.59375 C 0.390625 -0.457031 0.414062 -0.351562 0.46875 -0.28125 C 0.53125 -0.21875 0.628906 -0.1875 0.765625 -0.1875 C 0.898438 -0.1875 1.003906 -0.210938 1.078125 -0.265625 C 1.148438 -0.328125 1.1875 -0.40625 1.1875 -0.5 C 1.1875 -0.59375 1.148438 -0.664062 1.078125 -0.71875 C 1.003906 -0.769531 0.910156 -0.820312 0.796875 -0.875 C 0.679688 -0.925781 0.601562 -0.957031 0.5625 -0.96875 C 0.519531 -0.988281 0.46875 -1.019531 0.40625 -1.0625 C 0.351562 -1.101562 0.3125 -1.140625 0.28125 -1.171875 C 0.195312 -1.265625 0.15625 -1.375 0.15625 -1.5 C 0.15625 -1.6875 0.222656 -1.828125 0.359375 -1.921875 C 0.503906 -2.023438 0.675781 -2.078125 0.875 -2.078125 C 1.070312 -2.078125 1.21875 -2.03125 1.3125 -1.9375 Z M 1.3125 -1.9375 "/></g></g><g style="fill:#ffffff;fill-opacity:1;"><g transform="translate(40.279202, 24.069585)"><path style="stroke:none" d=""/></g></g><g style="fill:#ffffff;fill-opacity:1;"><g transform="translate(41.073408, 24.069585)"><path style="stroke:none" d="M 1.921875 -0.25 C 1.953125 -0.25 1.988281 -0.253906 2.03125 -0.265625 C 2.082031 -0.285156 2.113281 -0.304688 2.125 -0.328125 C 2.15625 -0.304688 2.171875 -0.265625 2.171875 -0.203125 C 2.171875 -0.140625 2.144531 -0.0820312 2.09375 -0.03125 C 2.039062 0.0195312 1.96875 0.046875 1.875 0.046875 C 1.726562 0.046875 1.554688 -0.015625 1.359375 -0.140625 C 1.191406 -0.015625 0.992188 0.046875 0.765625 0.046875 C 0.546875 0.046875 0.378906 0 0.265625 -0.09375 C 0.160156 -0.1875 0.109375 -0.3125 0.109375 -0.46875 C 0.109375 -0.695312 0.226562 -0.878906 0.46875 -1.015625 C 0.320312 -1.203125 0.25 -1.363281 0.25 -1.5 C 0.25 -1.644531 0.296875 -1.765625 0.390625 -1.859375 C 0.492188 -1.953125 0.628906 -2 0.796875 -2 C 0.960938 -2 1.085938 -1.960938 1.171875 -1.890625 C 1.265625 -1.816406 1.3125 -1.710938 1.3125 -1.578125 C 1.3125 -1.441406 1.269531 -1.328125 1.1875 -1.234375 C 1.101562 -1.140625 1 -1.070312 0.875 -1.03125 L 0.890625 -1 C 1.054688 -0.8125 1.222656 -0.644531 1.390625 -0.5 C 1.441406 -0.582031 1.484375 -0.679688 1.515625 -0.796875 L 1.328125 -0.796875 C 1.316406 -0.929688 1.359375 -1 1.453125 -1 L 1.953125 -1 L 1.953125 -0.96875 C 1.953125 -0.863281 1.914062 -0.804688 1.84375 -0.796875 L 1.75 -0.796875 C 1.707031 -0.640625 1.648438 -0.5 1.578125 -0.375 C 1.710938 -0.289062 1.828125 -0.25 1.921875 -0.25 Z M 1 -1.578125 C 1 -1.660156 0.976562 -1.722656 0.9375 -1.765625 C 0.894531 -1.804688 0.847656 -1.828125 0.796875 -1.828125 C 0.742188 -1.828125 0.691406 -1.800781 0.640625 -1.75 C 0.597656 -1.707031 0.578125 -1.648438 0.578125 -1.578125 C 0.578125 -1.472656 0.644531 -1.332031 0.78125 -1.15625 C 0.925781 -1.25 1 -1.390625 1 -1.578125 Z M 1.171875 -0.28125 C 1.015625 -0.414062 0.820312 -0.609375 0.59375 -0.859375 C 0.5 -0.765625 0.453125 -0.660156 0.453125 -0.546875 C 0.453125 -0.429688 0.484375 -0.34375 0.546875 -0.28125 C 0.617188 -0.226562 0.71875 -0.203125 0.84375 -0.203125 C 0.96875 -0.203125 1.078125 -0.226562 1.171875 -0.28125 Z M 1.171875 -0.28125 "/></g></g><g style="fill:#ffffff;fill-opacity:1;"><g transform="translate(43.278217, 24.069585)"><path style="stroke:none" d=""/></g></g><g style="fill:#ffffff;fill-opacity:1;"><g transform="translate(44.072422, 24.069585)"><path style="stroke:none" d="M 1.09375 -2.078125 C 1.269531 -2.078125 1.410156 -2.035156 1.515625 -1.953125 C 1.628906 -1.878906 1.6875 -1.789062 1.6875 -1.6875 C 1.6875 -1.613281 1.65625 -1.550781 1.59375 -1.5 C 1.539062 -1.457031 1.472656 -1.4375 1.390625 -1.4375 C 1.390625 -1.695312 1.28125 -1.828125 1.0625 -1.828125 C 0.882812 -1.828125 0.742188 -1.75 0.640625 -1.59375 C 0.535156 -1.445312 0.484375 -1.25 0.484375 -1 C 0.484375 -0.75 0.53125 -0.554688 0.625 -0.421875 C 0.726562 -0.285156 0.882812 -0.21875 1.09375 -0.21875 C 1.300781 -0.21875 1.488281 -0.28125 1.65625 -0.40625 C 1.6875 -0.382812 1.703125 -0.351562 1.703125 -0.3125 C 1.703125 -0.226562 1.628906 -0.144531 1.484375 -0.0625 C 1.347656 0.0078125 1.179688 0.046875 0.984375 0.046875 C 0.691406 0.046875 0.472656 -0.0390625 0.328125 -0.21875 C 0.179688 -0.40625 0.109375 -0.660156 0.109375 -0.984375 C 0.109375 -1.316406 0.191406 -1.582031 0.359375 -1.78125 C 0.523438 -1.976562 0.769531 -2.078125 1.09375 -2.078125 Z M 1.09375 -2.078125 "/></g></g><g style="fill:#ffffff;fill-opacity:1;"><g transform="translate(45.856421, 24.069585)"><path style="stroke:none" d="M 1.015625 -1.84375 C 0.660156 -1.84375 0.484375 -1.570312 0.484375 -1.03125 C 0.484375 -0.757812 0.523438 -0.550781 0.609375 -0.40625 C 0.703125 -0.269531 0.835938 -0.195312 1.015625 -0.1875 C 1.191406 -0.195312 1.328125 -0.269531 1.421875 -0.40625 C 1.515625 -0.539062 1.5625 -0.742188 1.5625 -1.015625 C 1.5625 -1.285156 1.515625 -1.488281 1.421875 -1.625 C 1.328125 -1.769531 1.191406 -1.84375 1.015625 -1.84375 Z M 0.109375 -1 C 0.109375 -1.332031 0.191406 -1.59375 0.359375 -1.78125 C 0.523438 -1.976562 0.753906 -2.078125 1.046875 -2.078125 C 1.335938 -2.078125 1.554688 -1.984375 1.703125 -1.796875 C 1.859375 -1.617188 1.9375 -1.363281 1.9375 -1.03125 C 1.9375 -0.695312 1.847656 -0.429688 1.671875 -0.234375 C 1.503906 -0.046875 1.273438 0.046875 0.984375 0.046875 C 0.703125 0.046875 0.484375 -0.0390625 0.328125 -0.21875 C 0.179688 -0.40625 0.109375 -0.664062 0.109375 -1 Z M 0.109375 -1 "/></g></g><g style="fill:#ffffff;fill-opacity:1;"><g transform="translate(47.898239, 24.069585)"><path style="stroke:none" d="M 1.5 -2.03125 L 2.015625 -2.03125 C 2.015625 -2.03125 2.015625 -2.023438 2.015625 -2.015625 C 2.015625 -1.898438 1.96875 -1.835938 1.875 -1.828125 L 1.796875 -1.828125 L 1.796875 -0.03125 C 1.734375 -0.0078125 1.65625 0 1.5625 0 L 0.5625 -1.5 L 0.5625 -0.203125 L 0.765625 -0.1875 C 0.785156 -0.0625 0.742188 0 0.640625 0 L 0.125 0 L 0.125 -0.03125 C 0.125 -0.132812 0.164062 -0.191406 0.25 -0.203125 L 0.328125 -0.203125 L 0.328125 -1.828125 L 0.125 -1.84375 C 0.113281 -1.851562 0.113281 -1.878906 0.125 -1.921875 C 0.144531 -1.992188 0.1875 -2.03125 0.25 -2.03125 L 0.640625 -2.03125 L 1.578125 -0.65625 L 1.578125 -1.828125 L 1.359375 -1.84375 C 1.347656 -1.96875 1.394531 -2.03125 1.5 -2.03125 Z M 1.5 -2.03125 "/></g></g><g style="fill:#ffffff;fill-opacity:1;"><g transform="translate(49.954874, 24.069585)"><path style="stroke:none" d="M 1.3125 -1.9375 C 1.375 -1.875 1.40625 -1.800781 1.40625 -1.71875 C 1.40625 -1.632812 1.378906 -1.566406 1.328125 -1.515625 C 1.273438 -1.472656 1.207031 -1.457031 1.125 -1.46875 C 1.125 -1.726562 1.015625 -1.859375 0.796875 -1.859375 C 0.703125 -1.859375 0.625 -1.832031 0.5625 -1.78125 C 0.5 -1.738281 0.46875 -1.679688 0.46875 -1.609375 C 0.46875 -1.546875 0.484375 -1.5 0.515625 -1.46875 C 0.546875 -1.4375 0.566406 -1.414062 0.578125 -1.40625 C 0.585938 -1.394531 0.613281 -1.378906 0.65625 -1.359375 C 0.695312 -1.335938 0.722656 -1.320312 0.734375 -1.3125 C 0.753906 -1.300781 0.789062 -1.285156 0.84375 -1.265625 C 0.894531 -1.242188 0.929688 -1.226562 0.953125 -1.21875 C 1.148438 -1.132812 1.289062 -1.050781 1.375 -0.96875 C 1.457031 -0.882812 1.5 -0.769531 1.5 -0.625 C 1.5 -0.425781 1.425781 -0.265625 1.28125 -0.140625 C 1.144531 -0.015625 0.957031 0.046875 0.71875 0.046875 C 0.476562 0.046875 0.296875 -0.0078125 0.171875 -0.125 C 0.109375 -0.175781 0.078125 -0.242188 0.078125 -0.328125 C 0.078125 -0.410156 0.101562 -0.472656 0.15625 -0.515625 C 0.207031 -0.566406 0.285156 -0.59375 0.390625 -0.59375 C 0.390625 -0.457031 0.414062 -0.351562 0.46875 -0.28125 C 0.53125 -0.21875 0.628906 -0.1875 0.765625 -0.1875 C 0.898438 -0.1875 1.003906 -0.210938 1.078125 -0.265625 C 1.148438 -0.328125 1.1875 -0.40625 1.1875 -0.5 C 1.1875 -0.59375 1.148438 -0.664062 1.078125 -0.71875 C 1.003906 -0.769531 0.910156 -0.820312 0.796875 -0.875 C 0.679688 -0.925781 0.601562 -0.957031 0.5625 -0.96875 C 0.519531 -0.988281 0.46875 -1.019531 0.40625 -1.0625 C 0.351562 -1.101562 0.3125 -1.140625 0.28125 -1.171875 C 0.195312 -1.265625 0.15625 -1.375 0.15625 -1.5 C 0.15625 -1.6875 0.222656 -1.828125 0.359375 -1.921875 C 0.503906 -2.023438 0.675781 -2.078125 0.875 -2.078125 C 1.070312 -2.078125 1.21875 -2.03125 1.3125 -1.9375 Z M 1.3125 -1.9375 "/></g></g><g style="fill:#ffffff;fill-opacity:1;"><g transform="translate(51.534395, 24.069585)"><path style="stroke:none" d="M 1.421875 -2.03125 L 1.953125 -2.03125 C 1.953125 -2.03125 1.953125 -2.023438 1.953125 -2.015625 C 1.953125 -1.898438 1.910156 -1.835938 1.828125 -1.828125 L 1.734375 -1.828125 L 1.734375 -0.859375 C 1.734375 -0.546875 1.671875 -0.316406 1.546875 -0.171875 C 1.421875 -0.0234375 1.234375 0.046875 0.984375 0.046875 C 0.742188 0.046875 0.5625 -0.0195312 0.4375 -0.15625 C 0.3125 -0.300781 0.25 -0.535156 0.25 -0.859375 L 0.25 -1.828125 L 0.03125 -1.84375 C 0.03125 -1.851562 0.03125 -1.878906 0.03125 -1.921875 C 0.0507812 -1.992188 0.0976562 -2.03125 0.171875 -2.03125 L 0.828125 -2.03125 L 0.828125 -2.015625 C 0.828125 -1.898438 0.785156 -1.835938 0.703125 -1.828125 L 0.625 -1.828125 L 0.625 -0.8125 C 0.625 -0.59375 0.648438 -0.429688 0.703125 -0.328125 C 0.765625 -0.234375 0.875 -0.1875 1.03125 -0.1875 C 1.34375 -0.1875 1.5 -0.382812 1.5 -0.78125 L 1.5 -1.828125 L 1.28125 -1.84375 C 1.269531 -1.96875 1.316406 -2.03125 1.421875 -2.03125 Z M 1.421875 -2.03125 "/></g></g><g style="fill:#ffffff;fill-opacity:1;"><g transform="translate(53.516944, 24.069585)"><path style="stroke:none" d="M 1.578125 -0.53125 L 1.578125 0 L 0.125 0 L 0.125 -0.03125 C 0.125 -0.132812 0.164062 -0.191406 0.25 -0.203125 L 0.328125 -0.203125 L 0.328125 -1.828125 L 0.125 -1.84375 C 0.125 -1.851562 0.125 -1.878906 0.125 -1.921875 C 0.144531 -1.992188 0.191406 -2.03125 0.265625 -2.03125 L 0.984375 -2.03125 L 0.984375 -2 C 0.984375 -1.925781 0.960938 -1.875 0.921875 -1.84375 C 0.898438 -1.832031 0.878906 -1.828125 0.859375 -1.828125 L 0.703125 -1.828125 L 0.703125 -0.203125 L 1.34375 -0.234375 L 1.390625 -0.640625 C 1.515625 -0.648438 1.578125 -0.613281 1.578125 -0.53125 Z M 1.578125 -0.53125 "/></g></g><g style="fill:#ffffff;fill-opacity:1;"><g transform="translate(55.173512, 24.069585)"><path style="stroke:none" d="M 0.0625 -2.03125 L 1.828125 -2.03125 L 1.828125 -1.609375 C 1.828125 -1.566406 1.8125 -1.535156 1.78125 -1.515625 C 1.757812 -1.492188 1.738281 -1.484375 1.71875 -1.484375 C 1.695312 -1.484375 1.671875 -1.484375 1.640625 -1.484375 L 1.609375 -1.8125 L 1.125 -1.8125 L 1.125 -0.203125 L 1.375 -0.1875 C 1.382812 -0.0625 1.335938 0 1.234375 0 L 0.515625 0 C 0.515625 0 0.515625 -0.0078125 0.515625 -0.03125 C 0.515625 -0.132812 0.554688 -0.191406 0.640625 -0.203125 L 0.75 -0.203125 L 0.75 -1.8125 L 0.28125 -1.8125 L 0.25 -1.484375 C 0.21875 -1.484375 0.191406 -1.484375 0.171875 -1.484375 C 0.148438 -1.484375 0.125 -1.492188 0.09375 -1.515625 C 0.0703125 -1.535156 0.0625 -1.566406 0.0625 -1.609375 Z M 0.0625 -2.03125 "/></g></g><g style="fill:#ffffff;fill-opacity:1;"><g transform="translate(57.058266, 24.069585)"><path style="stroke:none" d="M 1.78125 0 L 1.09375 0 L 1.09375 -0.03125 C 1.09375 -0.132812 1.132812 -0.191406 1.21875 -0.203125 L 1.3125 -0.203125 L 1.1875 -0.640625 L 0.65625 -0.640625 L 0.53125 -0.203125 L 0.765625 -0.1875 C 0.773438 -0.175781 0.773438 -0.148438 0.765625 -0.109375 C 0.742188 -0.0351562 0.703125 0 0.640625 0 L 0.03125 0 L 0.03125 -0.03125 C 0.03125 -0.132812 0.078125 -0.191406 0.171875 -0.203125 L 0.28125 -0.203125 L 0.84375 -2.03125 C 0.9375 -2.039062 1.039062 -2.039062 1.15625 -2.03125 L 1.703125 -0.203125 L 1.921875 -0.1875 C 1.921875 -0.175781 1.914062 -0.148438 1.90625 -0.109375 C 1.894531 -0.0351562 1.851562 0 1.78125 0 Z M 0.703125 -0.828125 L 1.140625 -0.828125 L 0.921875 -1.578125 Z M 0.703125 -0.828125 "/></g></g><g style="fill:#ffffff;fill-opacity:1;"><g transform="translate(59.014148, 24.069585)"><path style="stroke:none" d="M 1.5 -2.03125 L 2.015625 -2.03125 C 2.015625 -2.03125 2.015625 -2.023438 2.015625 -2.015625 C 2.015625 -1.898438 1.96875 -1.835938 1.875 -1.828125 L 1.796875 -1.828125 L 1.796875 -0.03125 C 1.734375 -0.0078125 1.65625 0 1.5625 0 L 0.5625 -1.5 L 0.5625 -0.203125 L 0.765625 -0.1875 C 0.785156 -0.0625 0.742188 0 0.640625 0 L 0.125 0 L 0.125 -0.03125 C 0.125 -0.132812 0.164062 -0.191406 0.25 -0.203125 L 0.328125 -0.203125 L 0.328125 -1.828125 L 0.125 -1.84375 C 0.113281 -1.851562 0.113281 -1.878906 0.125 -1.921875 C 0.144531 -1.992188 0.1875 -2.03125 0.25 -2.03125 L 0.640625 -2.03125 L 1.578125 -0.65625 L 1.578125 -1.828125 L 1.359375 -1.84375 C 1.347656 -1.96875 1.394531 -2.03125 1.5 -2.03125 Z M 1.5 -2.03125 "/></g></g><g style="fill:#ffffff;fill-opacity:1;"><g transform="translate(61.070781, 24.069585)"><path style="stroke:none" d="M 0.0625 -2.03125 L 1.828125 -2.03125 L 1.828125 -1.609375 C 1.828125 -1.566406 1.8125 -1.535156 1.78125 -1.515625 C 1.757812 -1.492188 1.738281 -1.484375 1.71875 -1.484375 C 1.695312 -1.484375 1.671875 -1.484375 1.640625 -1.484375 L 1.609375 -1.8125 L 1.125 -1.8125 L 1.125 -0.203125 L 1.375 -0.1875 C 1.382812 -0.0625 1.335938 0 1.234375 0 L 0.515625 0 C 0.515625 0 0.515625 -0.0078125 0.515625 -0.03125 C 0.515625 -0.132812 0.554688 -0.191406 0.640625 -0.203125 L 0.75 -0.203125 L 0.75 -1.8125 L 0.28125 -1.8125 L 0.25 -1.484375 C 0.21875 -1.484375 0.191406 -1.484375 0.171875 -1.484375 C 0.148438 -1.484375 0.125 -1.492188 0.09375 -1.515625 C 0.0703125 -1.535156 0.0625 -1.566406 0.0625 -1.609375 Z M 0.0625 -2.03125 "/></g></g><g style="fill:#ffffff;fill-opacity:1;"><g transform="translate(62.955539, 24.069585)"><path style="stroke:none" d="M 1.3125 -1.9375 C 1.375 -1.875 1.40625 -1.800781 1.40625 -1.71875 C 1.40625 -1.632812 1.378906 -1.566406 1.328125 -1.515625 C 1.273438 -1.472656 1.207031 -1.457031 1.125 -1.46875 C 1.125 -1.726562 1.015625 -1.859375 0.796875 -1.859375 C 0.703125 -1.859375 0.625 -1.832031 0.5625 -1.78125 C 0.5 -1.738281 0.46875 -1.679688 0.46875 -1.609375 C 0.46875 -1.546875 0.484375 -1.5 0.515625 -1.46875 C 0.546875 -1.4375 0.566406 -1.414062 0.578125 -1.40625 C 0.585938 -1.394531 0.613281 -1.378906 0.65625 -1.359375 C 0.695312 -1.335938 0.722656 -1.320312 0.734375 -1.3125 C 0.753906 -1.300781 0.789062 -1.285156 0.84375 -1.265625 C 0.894531 -1.242188 0.929688 -1.226562 0.953125 -1.21875 C 1.148438 -1.132812 1.289062 -1.050781 1.375 -0.96875 C 1.457031 -0.882812 1.5 -0.769531 1.5 -0.625 C 1.5 -0.425781 1.425781 -0.265625 1.28125 -0.140625 C 1.144531 -0.015625 0.957031 0.046875 0.71875 0.046875 C 0.476562 0.046875 0.296875 -0.0078125 0.171875 -0.125 C 0.109375 -0.175781 0.078125 -0.242188 0.078125 -0.328125 C 0.078125 -0.410156 0.101562 -0.472656 0.15625 -0.515625 C 0.207031 -0.566406 0.285156 -0.59375 0.390625 -0.59375 C 0.390625 -0.457031 0.414062 -0.351562 0.46875 -0.28125 C 0.53125 -0.21875 0.628906 -0.1875 0.765625 -0.1875 C 0.898438 -0.1875 1.003906 -0.210938 1.078125 -0.265625 C 1.148438 -0.328125 1.1875 -0.40625 1.1875 -0.5 C 1.1875 -0.59375 1.148438 -0.664062 1.078125 -0.71875 C 1.003906 -0.769531 0.910156 -0.820312 0.796875 -0.875 C 0.679688 -0.925781 0.601562 -0.957031 0.5625 -0.96875 C 0.519531 -0.988281 0.46875 -1.019531 0.40625 -1.0625 C 0.351562 -1.101562 0.3125 -1.140625 0.28125 -1.171875 C 0.195312 -1.265625 0.15625 -1.375 0.15625 -1.5 C 0.15625 -1.6875 0.222656 -1.828125 0.359375 -1.921875 C 0.503906 -2.023438 0.675781 -2.078125 0.875 -2.078125 C 1.070312 -2.078125 1.21875 -2.03125 1.3125 -1.9375 Z M 1.3125 -1.9375 "/></g></g><g clip-rule="nonzero" clip-path="url(#16d01a8ff1)"><path style="fill-rule:evenodd;fill:#ffffff;fill-opacity:1;stroke-width:0.596;stroke-linecap:round;stroke-linejoin:round;stroke:#000000;stroke-opacity:1;stroke-miterlimit:4;" d="M 74.421065 126.087148 C 74.399537 126.087148 74.248843 126.539231 74.141204 127.098954 C 74.012037 127.637148 73.818287 128.433676 73.732176 128.821176 C 73.323148 130.543398 73.172454 131.232287 73.000232 131.942704 C 72.957176 132.114926 72.871065 132.523954 72.784954 132.868398 C 72.698843 133.212843 72.612732 133.62187 72.569676 133.772565 C 72.397454 134.569093 72.225232 135.344093 72.160648 135.537843 C 72.074537 135.796176 72.074537 136.011454 72.139121 135.968398 C 72.160648 135.968398 72.375926 135.860759 72.591204 135.75312 C 72.82801 135.645482 73.172454 135.494787 73.40926 135.387148 C 73.624537 135.279509 74.442593 134.913537 75.217593 134.547565 C 75.992593 134.20312 76.789121 133.81562 77.025926 133.707981 C 77.241204 133.62187 77.607176 133.449648 77.822454 133.342009 C 78.037732 133.255898 78.231482 133.191315 78.25301 133.212843 C 78.25301 133.23437 78.166898 133.686454 78.016204 134.20312 C 77.86551 134.741315 77.434954 136.398954 77.025926 137.88437 C 76.638426 139.369787 76.250926 140.769093 76.186343 140.962843 C 76.057176 141.436454 75.045371 145.160759 73.775232 149.918398 C 73.258565 151.812843 72.698843 153.879509 72.548148 154.503815 C 72.375926 155.128121 72.225232 155.666315 72.225232 155.709371 C 72.225232 155.773954 73.258565 155.817009 77.004398 155.838537 L 79.307871 155.838537 L 79.350926 155.623259 C 79.372454 155.494093 79.437037 155.063537 79.501621 154.654509 C 79.544676 154.245482 79.630787 153.728815 79.673843 153.492009 C 79.695371 153.276732 80.039815 151.080898 80.405787 148.626732 C 80.77176 146.172565 81.116204 143.847565 81.180787 143.460065 C 81.396065 142.125343 81.568287 140.962843 81.675926 140.252426 C 81.718982 139.864926 81.826621 139.24062 81.869676 138.896176 C 81.912732 138.551732 82.149537 137.044787 82.364815 135.55937 C 82.601621 134.052426 82.795371 132.84687 82.816899 132.868398 C 82.838426 132.889926 83.570371 137.69062 83.87176 139.778815 C 83.914815 140.037148 84.000926 140.661454 84.087037 141.17812 C 84.173149 141.694787 84.25926 142.34062 84.302315 142.577426 C 84.345371 142.835759 84.409954 143.330898 84.474537 143.718398 C 84.517593 144.08437 84.948149 146.926037 85.42176 150.026037 C 85.895371 153.126037 86.282871 155.709371 86.304399 155.773954 C 86.325926 155.860065 86.864121 155.860065 89.856482 155.817009 C 91.793982 155.795482 93.387038 155.773954 93.408565 155.752426 C 93.408565 155.752426 93.387038 155.644787 93.36551 155.537148 C 93.322454 155.407982 92.913426 153.944093 92.461343 152.264926 C 92.00926 150.585759 91.363426 148.196176 91.04051 146.926037 C 90.696065 145.677426 89.985649 143.051037 89.468982 141.113537 C 87.983565 135.667009 87.445371 133.643398 87.402315 133.557287 C 87.35926 133.406593 87.466899 133.449648 88.198843 133.772565 C 90.07176 134.655204 90.437732 134.805898 90.889815 135.021176 C 91.62176 135.344093 92.181482 135.623954 92.655093 135.839232 C 92.891899 135.968398 93.128704 136.054509 93.17176 136.054509 C 93.236343 136.054509 93.214815 135.882287 93.042593 135.257982 C 92.934954 134.805898 92.719676 133.901731 92.439815 132.65312 C 92.39676 132.502426 92.310649 132.114926 92.246065 131.770481 C 92.159954 131.447565 92.052315 130.973954 91.987732 130.71562 C 91.707871 129.531593 91.557176 128.864231 91.298843 127.701731 C 91.191204 127.292704 91.083565 126.797565 91.04051 126.603815 C 90.997454 126.410065 90.911343 126.237843 90.889815 126.237843 C 90.803704 126.237843 90.588426 126.345481 88.026621 127.80937 C 86.046065 128.928815 85.680093 129.144093 85.012732 129.510065 C 84.84051 129.617704 84.366899 129.876037 83.979399 130.091315 C 83.591899 130.306593 83.161343 130.564926 83.010649 130.651037 L 82.730787 130.780204 L 82.364815 130.586454 C 82.171065 130.478815 81.891204 130.306593 81.74051 130.220481 C 81.589815 130.13437 81.309954 129.983676 81.137732 129.897565 C 80.96551 129.789926 79.824537 129.144093 78.575926 128.455204 C 76.078704 127.012843 75.798843 126.862148 75.239121 126.560759 C 75.023843 126.45312 74.76551 126.302426 74.679398 126.216315 C 74.57176 126.151731 74.464121 126.087148 74.421065 126.087148 Z M 74.421065 126.087148 " transform="matrix(0.181452,0,0,0.181452,47.386803,-18.449029)"/></g></g></svg>