<svg xmlns="http://www.w3.org/2000/svg" xmlns:xlink="http://www.w3.org/1999/xlink" width="180" zoomAndPan="magnify" viewBox="0 0 135 37.5" height="50" preserveAspectRatio="xMidYMid meet" version="1.2"><defs><clipPath id="bd251beb97"><path d="M 0.886719 0 L 134.109375 0 L 134.109375 37.007812 L 0.886719 37.007812 Z M 0.886719 0 "/></clipPath><clipPath id="f2d2de57fb"><path d="M 89.089844 0 L 103 0 L 103 14.128906 L 89.089844 14.128906 Z M 89.089844 0 "/></clipPath><clipPath id="225033b1f9"><path d="M 93 2.753906 L 99.128906 2.753906 L 99.128906 11.316406 L 93 11.316406 Z M 93 2.753906 "/></clipPath><clipPath id="3d3e3daab9"><path d="M 92.921875 2.753906 L 99.128906 2.753906 L 99.128906 11.316406 L 92.921875 11.316406 Z M 92.921875 2.753906 "/></clipPath></defs><g id="c8e8e1fe42"><g clip-rule="nonzero" clip-path="url(#bd251beb97)"><path style=" stroke:none;fill-rule:nonzero;fill:#ffffff;fill-opacity:1;" d="M 0.886719 0 L 134.113281 0 L 134.113281 37.007812 L 0.886719 37.007812 Z M 0.886719 0 "/><path style=" stroke:none;fill-rule:nonzero;fill:#f8f9f9;fill-opacity:1;" d="M 0.886719 0 L 134.113281 0 L 134.113281 37.007812 L 0.886719 37.007812 Z M 0.886719 0 "/></g><g style="fill:#0e004c;fill-opacity:1;"><g transform="translate(51.520325, 26.421783)"><path style="stroke:none" d="M 6.34375 -11.546875 C 7.476562 -11.546875 8.46875 -11.316406 9.3125 -10.859375 C 10.15625 -10.398438 10.8125 -9.738281 11.28125 -8.875 C 11.75 -8.019531 11.984375 -6.976562 11.984375 -5.75 C 11.984375 -4.5625 11.742188 -3.519531 11.265625 -2.625 C 10.785156 -1.726562 10.113281 -1.03125 9.25 -0.53125 C 8.394531 -0.03125 7.421875 0.21875 6.328125 0.21875 C 5.203125 0.21875 4.210938 -0.0078125 3.359375 -0.46875 C 2.515625 -0.925781 1.859375 -1.582031 1.390625 -2.4375 C 0.921875 -3.300781 0.6875 -4.34375 0.6875 -5.5625 C 0.6875 -6.757812 0.925781 -7.800781 1.40625 -8.6875 C 1.894531 -9.582031 2.5625 -10.28125 3.40625 -10.78125 C 4.257812 -11.289062 5.238281 -11.546875 6.34375 -11.546875 Z M 6.28125 -11.25 C 5.6875 -11.25 5.164062 -11.007812 4.71875 -10.53125 C 4.28125 -10.050781 3.941406 -9.390625 3.703125 -8.546875 C 3.460938 -7.703125 3.34375 -6.726562 3.34375 -5.625 C 3.34375 -4.5 3.476562 -3.515625 3.75 -2.671875 C 4.019531 -1.835938 4.382812 -1.191406 4.84375 -0.734375 C 5.3125 -0.285156 5.828125 -0.0625 6.390625 -0.0625 C 6.984375 -0.0625 7.5 -0.300781 7.9375 -0.78125 C 8.382812 -1.257812 8.726562 -1.921875 8.96875 -2.765625 C 9.207031 -3.617188 9.328125 -4.59375 9.328125 -5.6875 C 9.328125 -6.832031 9.191406 -7.816406 8.921875 -8.640625 C 8.648438 -9.472656 8.28125 -10.113281 7.8125 -10.5625 C 7.351562 -11.019531 6.84375 -11.25 6.28125 -11.25 Z M 6.28125 -11.25 "/></g></g><g style="fill:#0e004c;fill-opacity:1;"><g transform="translate(66.462037, 26.421783)"><path style="stroke:none" d="M 5.578125 -11.3125 L 5.578125 -11 C 5.210938 -10.988281 4.9375 -10.945312 4.75 -10.875 C 4.5625 -10.800781 4.4375 -10.671875 4.375 -10.484375 C 4.3125 -10.304688 4.28125 -10.019531 4.28125 -9.625 L 4.28125 -1.5 C 4.28125 -1.164062 4.300781 -0.921875 4.34375 -0.765625 C 4.394531 -0.609375 4.492188 -0.503906 4.640625 -0.453125 C 4.785156 -0.398438 5.003906 -0.375 5.296875 -0.375 L 6.078125 -0.375 C 6.441406 -0.375 6.78125 -0.457031 7.09375 -0.625 C 7.414062 -0.789062 7.703125 -1.03125 7.953125 -1.34375 C 8.210938 -1.664062 8.425781 -2.046875 8.59375 -2.484375 C 8.769531 -2.921875 8.898438 -3.40625 8.984375 -3.9375 L 9.34375 -3.9375 C 9.3125 -3.570312 9.296875 -3.101562 9.296875 -2.53125 C 9.296875 -2.28125 9.300781 -1.921875 9.3125 -1.453125 C 9.320312 -0.984375 9.359375 -0.5 9.421875 0 C 8.867188 -0.0195312 8.25 -0.03125 7.5625 -0.03125 C 6.882812 -0.0390625 6.28125 -0.046875 5.75 -0.046875 C 5.488281 -0.046875 5.148438 -0.046875 4.734375 -0.046875 C 4.316406 -0.046875 3.867188 -0.0390625 3.390625 -0.03125 C 2.910156 -0.03125 2.425781 -0.0234375 1.9375 -0.015625 C 1.445312 -0.015625 0.984375 -0.0078125 0.546875 0 L 0.546875 -0.3125 C 0.890625 -0.34375 1.144531 -0.390625 1.3125 -0.453125 C 1.476562 -0.515625 1.59375 -0.640625 1.65625 -0.828125 C 1.71875 -1.023438 1.75 -1.3125 1.75 -1.6875 L 1.75 -9.625 C 1.75 -10.019531 1.71875 -10.304688 1.65625 -10.484375 C 1.59375 -10.671875 1.472656 -10.800781 1.296875 -10.875 C 1.117188 -10.945312 0.867188 -10.988281 0.546875 -11 L 0.546875 -11.3125 C 0.804688 -11.300781 1.160156 -11.289062 1.609375 -11.28125 C 2.066406 -11.269531 2.550781 -11.265625 3.0625 -11.265625 C 3.53125 -11.265625 3.988281 -11.269531 4.4375 -11.28125 C 4.894531 -11.289062 5.273438 -11.300781 5.578125 -11.3125 Z M 5.578125 -11.3125 "/></g></g><g style="fill:#0e004c;fill-opacity:1;"><g transform="translate(77.312776, 26.421783)"><path style="stroke:none" d="M 10.84375 -11.3125 L 10.84375 -11 C 10.601562 -10.914062 10.351562 -10.726562 10.09375 -10.4375 C 9.832031 -10.144531 9.585938 -9.695312 9.359375 -9.09375 L 6 0.03125 C 5.90625 0.0195312 5.8125 0.015625 5.71875 0.015625 C 5.625 0.015625 5.53125 0.015625 5.4375 0.015625 C 5.351562 0.015625 5.257812 0.015625 5.15625 0.015625 C 5.0625 0.015625 4.972656 0.0195312 4.890625 0.03125 L 0.8125 -9.96875 C 0.664062 -10.351562 0.5 -10.617188 0.3125 -10.765625 C 0.132812 -10.910156 -0.03125 -10.988281 -0.1875 -11 L -0.1875 -11.3125 C 0.125 -11.300781 0.492188 -11.289062 0.921875 -11.28125 C 1.359375 -11.269531 1.796875 -11.265625 2.234375 -11.265625 C 2.722656 -11.265625 3.179688 -11.269531 3.609375 -11.28125 C 4.046875 -11.289062 4.398438 -11.300781 4.671875 -11.3125 L 4.671875 -11 C 4.328125 -10.988281 4.054688 -10.945312 3.859375 -10.875 C 3.671875 -10.800781 3.566406 -10.671875 3.546875 -10.484375 C 3.523438 -10.304688 3.585938 -10.03125 3.734375 -9.65625 L 6.65625 -2.25 L 6.3125 -1.859375 L 8.515625 -7.796875 C 8.804688 -8.597656 8.957031 -9.226562 8.96875 -9.6875 C 8.976562 -10.144531 8.863281 -10.472656 8.625 -10.671875 C 8.394531 -10.878906 8.0625 -10.988281 7.625 -11 L 7.625 -11.3125 C 7.988281 -11.300781 8.328125 -11.289062 8.640625 -11.28125 C 8.960938 -11.269531 9.289062 -11.265625 9.625 -11.265625 C 9.851562 -11.265625 10.070312 -11.269531 10.28125 -11.28125 C 10.488281 -11.289062 10.675781 -11.300781 10.84375 -11.3125 Z M 10.84375 -11.3125 "/></g></g><g style="fill:#0e004c;fill-opacity:1;"><g transform="translate(89.378017, 26.421783)"><path style="stroke:none" d="M 2.15625 -2.234375 C 2.570312 -2.234375 2.898438 -2.125 3.140625 -1.90625 C 3.390625 -1.6875 3.515625 -1.382812 3.515625 -1 C 3.515625 -0.625 3.390625 -0.328125 3.140625 -0.109375 C 2.898438 0.109375 2.570312 0.21875 2.15625 0.21875 C 1.738281 0.21875 1.40625 0.109375 1.15625 -0.109375 C 0.914062 -0.328125 0.796875 -0.625 0.796875 -1 C 0.796875 -1.382812 0.914062 -1.6875 1.15625 -1.90625 C 1.40625 -2.125 1.738281 -2.234375 2.15625 -2.234375 Z M 2.15625 -2.234375 "/></g></g><g style="fill:#0e004c;fill-opacity:1;"><g transform="translate(36.360433, 26.714621)"><path style="stroke:none" d="M 6.734375 -17.078125 C 7.660156 -17.078125 8.375 -16.976562 8.875 -16.78125 C 9.382812 -16.582031 9.820312 -16.375 10.1875 -16.15625 C 10.375 -16.039062 10.523438 -15.957031 10.640625 -15.90625 C 10.765625 -15.851562 10.878906 -15.828125 10.984375 -15.828125 C 11.148438 -15.828125 11.265625 -15.910156 11.328125 -16.078125 C 11.398438 -16.253906 11.460938 -16.515625 11.515625 -16.859375 L 12.0625 -16.859375 C 12.039062 -16.566406 12.019531 -16.207031 12 -15.78125 C 11.976562 -15.363281 11.960938 -14.816406 11.953125 -14.140625 C 11.941406 -13.460938 11.9375 -12.570312 11.9375 -11.46875 L 11.390625 -11.46875 C 11.328125 -12.289062 11.132812 -13.085938 10.8125 -13.859375 C 10.5 -14.628906 10.054688 -15.265625 9.484375 -15.765625 C 8.910156 -16.265625 8.203125 -16.515625 7.359375 -16.515625 C 6.609375 -16.515625 5.988281 -16.300781 5.5 -15.875 C 5.007812 -15.445312 4.765625 -14.851562 4.765625 -14.09375 C 4.765625 -13.457031 4.921875 -12.914062 5.234375 -12.46875 C 5.546875 -12.019531 6.003906 -11.582031 6.609375 -11.15625 C 7.222656 -10.726562 7.960938 -10.210938 8.828125 -9.609375 C 9.585938 -9.128906 10.265625 -8.644531 10.859375 -8.15625 C 11.460938 -7.664062 11.945312 -7.109375 12.3125 -6.484375 C 12.675781 -5.867188 12.859375 -5.132812 12.859375 -4.28125 C 12.859375 -3.238281 12.585938 -2.378906 12.046875 -1.703125 C 11.503906 -1.023438 10.789062 -0.515625 9.90625 -0.171875 C 9.019531 0.160156 8.046875 0.328125 6.984375 0.328125 C 6.003906 0.328125 5.222656 0.234375 4.640625 0.046875 C 4.054688 -0.140625 3.566406 -0.335938 3.171875 -0.546875 C 2.828125 -0.765625 2.5625 -0.875 2.375 -0.875 C 2.207031 -0.875 2.085938 -0.785156 2.015625 -0.609375 C 1.953125 -0.441406 1.894531 -0.179688 1.84375 0.171875 L 1.296875 0.171875 C 1.328125 -0.210938 1.347656 -0.65625 1.359375 -1.15625 C 1.367188 -1.664062 1.375 -2.328125 1.375 -3.140625 C 1.382812 -3.953125 1.390625 -4.984375 1.390625 -6.234375 L 1.9375 -6.234375 C 2 -5.191406 2.175781 -4.210938 2.46875 -3.296875 C 2.757812 -2.390625 3.207031 -1.660156 3.8125 -1.109375 C 4.425781 -0.554688 5.238281 -0.28125 6.25 -0.28125 C 6.800781 -0.28125 7.296875 -0.378906 7.734375 -0.578125 C 8.171875 -0.773438 8.519531 -1.070312 8.78125 -1.46875 C 9.050781 -1.863281 9.1875 -2.351562 9.1875 -2.9375 C 9.1875 -3.601562 9.03125 -4.179688 8.71875 -4.671875 C 8.414062 -5.160156 8 -5.617188 7.46875 -6.046875 C 6.945312 -6.472656 6.335938 -6.90625 5.640625 -7.34375 C 4.898438 -7.832031 4.203125 -8.320312 3.546875 -8.8125 C 2.898438 -9.300781 2.382812 -9.859375 2 -10.484375 C 1.613281 -11.117188 1.421875 -11.875 1.421875 -12.75 C 1.421875 -13.738281 1.664062 -14.550781 2.15625 -15.1875 C 2.65625 -15.832031 3.3125 -16.304688 4.125 -16.609375 C 4.945312 -16.921875 5.816406 -17.078125 6.734375 -17.078125 Z M 6.734375 -17.078125 "/></g></g><g clip-rule="nonzero" clip-path="url(#f2d2de57fb)"><path style=" stroke:none;fill-rule:nonzero;fill:#0e004c;fill-opacity:1;" d="M 96.003906 14.042969 C 92.191406 14.042969 89.089844 10.941406 89.089844 7.128906 C 89.089844 3.3125 92.191406 0.210938 96.003906 0.210938 C 99.820312 0.210938 102.921875 3.3125 102.921875 7.128906 C 102.921875 10.941406 99.820312 14.042969 96.003906 14.042969 Z M 96.003906 0.789062 C 92.511719 0.789062 89.667969 3.632812 89.667969 7.128906 C 89.667969 10.621094 92.511719 13.464844 96.003906 13.464844 C 99.5 13.464844 102.34375 10.621094 102.34375 7.128906 C 102.34375 3.632812 99.5 0.789062 96.003906 0.789062 Z M 96.003906 0.789062 "/></g><g style="fill:#0e004c;fill-opacity:1;"><g transform="translate(32.078848, 34.637762)"><path style="stroke:none" d="M 2.90625 0 L 1.765625 0 L 1.765625 -0.03125 C 1.765625 -0.21875 1.835938 -0.316406 1.984375 -0.328125 L 2.125 -0.328125 L 1.9375 -1.03125 L 1.0625 -1.03125 L 0.859375 -0.34375 L 1.25 -0.3125 C 1.257812 -0.289062 1.257812 -0.25 1.25 -0.1875 C 1.21875 -0.0625 1.144531 0 1.03125 0 L 0.0625 0 L 0.0625 -0.03125 C 0.0625 -0.21875 0.132812 -0.316406 0.28125 -0.328125 L 0.453125 -0.328125 L 1.390625 -3.3125 C 1.523438 -3.332031 1.6875 -3.332031 1.875 -3.3125 L 2.78125 -0.34375 L 3.125 -0.3125 C 3.132812 -0.289062 3.132812 -0.25 3.125 -0.1875 C 3.09375 -0.0625 3.019531 0 2.90625 0 Z M 1.15625 -1.359375 L 1.84375 -1.359375 L 1.515625 -2.59375 Z M 1.15625 -1.359375 "/></g></g><g style="fill:#0e004c;fill-opacity:1;"><g transform="translate(35.279552, 34.637762)"><path style="stroke:none" d="M 0.453125 -3.3125 L 1.578125 -3.3125 C 2.710938 -3.3125 3.28125 -2.765625 3.28125 -1.671875 C 3.28125 -1.128906 3.128906 -0.710938 2.828125 -0.421875 C 2.535156 -0.140625 2.128906 0 1.609375 0 L 0.203125 0 C 0.191406 -0.0703125 0.195312 -0.140625 0.21875 -0.203125 C 0.25 -0.273438 0.300781 -0.3125 0.375 -0.3125 L 0.546875 -0.34375 L 0.546875 -2.96875 L 0.53125 -2.96875 L 0.203125 -3 C 0.191406 -3.113281 0.203125 -3.191406 0.234375 -3.234375 C 0.273438 -3.285156 0.347656 -3.3125 0.453125 -3.3125 Z M 1.46875 -0.328125 C 1.882812 -0.304688 2.1875 -0.398438 2.375 -0.609375 C 2.5625 -0.816406 2.65625 -1.164062 2.65625 -1.65625 C 2.65625 -2.144531 2.554688 -2.492188 2.359375 -2.703125 C 2.171875 -2.910156 1.859375 -3.003906 1.421875 -2.984375 L 1.140625 -2.96875 L 1.140625 -0.359375 Z M 1.46875 -0.328125 "/></g></g><g style="fill:#0e004c;fill-opacity:1;"><g transform="translate(38.73243, 34.637762)"><path style="stroke:none" d="M 2.203125 -3.3125 L 3.125 -3.3125 C 3.125 -3.3125 3.125 -3.300781 3.125 -3.28125 C 3.125 -3.101562 3.050781 -3.007812 2.90625 -3 L 2.796875 -2.984375 L 1.765625 0 L 1.28125 0 L 0.3125 -2.96875 L 0 -3 C -0.0078125 -3.019531 -0.00390625 -3.066406 0.015625 -3.140625 C 0.0351562 -3.253906 0.101562 -3.3125 0.21875 -3.3125 L 1.34375 -3.3125 C 1.332031 -3.1875 1.316406 -3.109375 1.296875 -3.078125 C 1.253906 -3.023438 1.195312 -3 1.125 -3 L 0.984375 -2.984375 L 1.640625 -0.734375 L 2.375 -2.96875 L 1.984375 -3 C 1.972656 -3.019531 1.976562 -3.066406 2 -3.140625 C 2.03125 -3.253906 2.097656 -3.3125 2.203125 -3.3125 Z M 2.203125 -3.3125 "/></g></g><g style="fill:#0e004c;fill-opacity:1;"><g transform="translate(41.865241, 34.637762)"><path style="stroke:none" d="M 1.671875 -3 C 1.085938 -3 0.796875 -2.5625 0.796875 -1.6875 C 0.796875 -1.238281 0.867188 -0.894531 1.015625 -0.65625 C 1.160156 -0.425781 1.367188 -0.3125 1.640625 -0.3125 C 1.941406 -0.3125 2.164062 -0.425781 2.3125 -0.65625 C 2.457031 -0.882812 2.53125 -1.21875 2.53125 -1.65625 C 2.53125 -2.09375 2.457031 -2.425781 2.3125 -2.65625 C 2.164062 -2.882812 1.953125 -3 1.671875 -3 Z M 0.171875 -1.640625 C 0.171875 -2.179688 0.304688 -2.609375 0.578125 -2.921875 C 0.859375 -3.234375 1.234375 -3.390625 1.703125 -3.390625 C 2.179688 -3.390625 2.546875 -3.238281 2.796875 -2.9375 C 3.046875 -2.644531 3.171875 -2.222656 3.171875 -1.671875 C 3.171875 -1.128906 3.03125 -0.703125 2.75 -0.390625 C 2.46875 -0.078125 2.09375 0.078125 1.625 0.078125 C 1.15625 0.078125 0.796875 -0.0703125 0.546875 -0.375 C 0.296875 -0.675781 0.171875 -1.097656 0.171875 -1.640625 Z M 0.171875 -1.640625 "/></g></g><g style="fill:#0e004c;fill-opacity:1;"><g transform="translate(45.206581, 34.637762)"><path style="stroke:none" d="M 1.796875 -3.390625 C 2.078125 -3.390625 2.300781 -3.328125 2.46875 -3.203125 C 2.644531 -3.078125 2.734375 -2.925781 2.734375 -2.75 C 2.734375 -2.625 2.691406 -2.523438 2.609375 -2.453125 C 2.523438 -2.378906 2.40625 -2.34375 2.25 -2.34375 C 2.25 -2.757812 2.078125 -2.96875 1.734375 -2.96875 C 1.429688 -2.96875 1.195312 -2.847656 1.03125 -2.609375 C 0.875 -2.367188 0.796875 -2.039062 0.796875 -1.625 C 0.796875 -1.21875 0.875 -0.90625 1.03125 -0.6875 C 1.195312 -0.46875 1.445312 -0.359375 1.78125 -0.359375 C 2.125 -0.359375 2.425781 -0.457031 2.6875 -0.65625 C 2.738281 -0.625 2.765625 -0.570312 2.765625 -0.5 C 2.765625 -0.363281 2.648438 -0.234375 2.421875 -0.109375 C 2.191406 0.015625 1.925781 0.078125 1.625 0.078125 C 1.144531 0.078125 0.78125 -0.0664062 0.53125 -0.359375 C 0.289062 -0.660156 0.171875 -1.078125 0.171875 -1.609375 C 0.171875 -2.148438 0.304688 -2.582031 0.578125 -2.90625 C 0.859375 -3.226562 1.265625 -3.390625 1.796875 -3.390625 Z M 1.796875 -3.390625 "/></g></g><g style="fill:#0e004c;fill-opacity:1;"><g transform="translate(48.126011, 34.637762)"><path style="stroke:none" d="M 2.90625 0 L 1.765625 0 L 1.765625 -0.03125 C 1.765625 -0.21875 1.835938 -0.316406 1.984375 -0.328125 L 2.125 -0.328125 L 1.9375 -1.03125 L 1.0625 -1.03125 L 0.859375 -0.34375 L 1.25 -0.3125 C 1.257812 -0.289062 1.257812 -0.25 1.25 -0.1875 C 1.21875 -0.0625 1.144531 0 1.03125 0 L 0.0625 0 L 0.0625 -0.03125 C 0.0625 -0.21875 0.132812 -0.316406 0.28125 -0.328125 L 0.453125 -0.328125 L 1.390625 -3.3125 C 1.523438 -3.332031 1.6875 -3.332031 1.875 -3.3125 L 2.78125 -0.34375 L 3.125 -0.3125 C 3.132812 -0.289062 3.132812 -0.25 3.125 -0.1875 C 3.09375 -0.0625 3.019531 0 2.90625 0 Z M 1.15625 -1.359375 L 1.84375 -1.359375 L 1.515625 -2.59375 Z M 1.15625 -1.359375 "/></g></g><g style="fill:#0e004c;fill-opacity:1;"><g transform="translate(51.326714, 34.637762)"><path style="stroke:none" d="M 0.09375 -3.3125 L 2.984375 -3.3125 L 2.984375 -2.640625 C 2.984375 -2.566406 2.960938 -2.515625 2.921875 -2.484375 C 2.878906 -2.453125 2.84375 -2.429688 2.8125 -2.421875 C 2.78125 -2.421875 2.734375 -2.421875 2.671875 -2.421875 L 2.625 -2.953125 L 1.84375 -2.953125 L 1.84375 -0.34375 L 2.234375 -0.3125 C 2.253906 -0.101562 2.179688 0 2.015625 0 L 0.828125 0 C 0.828125 0 0.828125 -0.0078125 0.828125 -0.03125 C 0.828125 -0.21875 0.898438 -0.316406 1.046875 -0.328125 L 1.234375 -0.328125 L 1.234375 -2.953125 L 0.453125 -2.953125 L 0.40625 -2.421875 C 0.34375 -2.421875 0.296875 -2.421875 0.265625 -2.421875 C 0.234375 -2.429688 0.195312 -2.453125 0.15625 -2.484375 C 0.113281 -2.515625 0.09375 -2.566406 0.09375 -2.640625 Z M 0.09375 -3.3125 "/></g></g><g style="fill:#0e004c;fill-opacity:1;"><g transform="translate(54.411029, 34.637762)"><path style="stroke:none" d="M 2.625 -0.796875 L 2.625 0 L 0.1875 0 C 0.1875 -0.207031 0.257812 -0.316406 0.40625 -0.328125 L 0.546875 -0.328125 L 0.546875 -2.96875 L 0.203125 -3 C 0.191406 -3.019531 0.191406 -3.066406 0.203125 -3.140625 C 0.234375 -3.253906 0.304688 -3.3125 0.421875 -3.3125 L 2.53125 -3.3125 L 2.53125 -2.59375 C 2.53125 -2.445312 2.429688 -2.378906 2.234375 -2.390625 L 2.1875 -2.96875 L 1.15625 -2.984375 L 1.15625 -1.78125 L 2.015625 -1.890625 C 2.054688 -1.734375 2.0625 -1.570312 2.03125 -1.40625 L 1.15625 -1.453125 L 1.15625 -0.34375 L 2.28125 -0.375 L 2.3125 -0.984375 C 2.519531 -0.992188 2.625 -0.929688 2.625 -0.796875 Z M 2.625 -0.796875 "/></g></g><g style="fill:#0e004c;fill-opacity:1;"><g transform="translate(57.189823, 34.637762)"><path style="stroke:none" d="M 2.15625 -3.140625 C 2.25 -3.054688 2.296875 -2.941406 2.296875 -2.796875 C 2.296875 -2.660156 2.253906 -2.554688 2.171875 -2.484375 C 2.085938 -2.410156 1.976562 -2.382812 1.84375 -2.40625 C 1.84375 -2.8125 1.660156 -3.015625 1.296875 -3.015625 C 1.140625 -3.015625 1.007812 -2.976562 0.90625 -2.90625 C 0.8125 -2.832031 0.765625 -2.734375 0.765625 -2.609375 C 0.765625 -2.515625 0.785156 -2.441406 0.828125 -2.390625 C 0.878906 -2.347656 0.914062 -2.316406 0.9375 -2.296875 C 0.957031 -2.273438 1 -2.25 1.0625 -2.21875 C 1.125 -2.1875 1.171875 -2.160156 1.203125 -2.140625 C 1.234375 -2.128906 1.289062 -2.101562 1.375 -2.0625 C 1.457031 -2.03125 1.515625 -2.007812 1.546875 -2 C 1.878906 -1.851562 2.109375 -1.710938 2.234375 -1.578125 C 2.367188 -1.441406 2.4375 -1.257812 2.4375 -1.03125 C 2.4375 -0.695312 2.320312 -0.425781 2.09375 -0.21875 C 1.863281 -0.0195312 1.554688 0.078125 1.171875 0.078125 C 0.773438 0.078125 0.476562 -0.0078125 0.28125 -0.1875 C 0.175781 -0.289062 0.125 -0.410156 0.125 -0.546875 C 0.125 -0.679688 0.164062 -0.785156 0.25 -0.859375 C 0.332031 -0.941406 0.460938 -0.984375 0.640625 -0.984375 C 0.640625 -0.742188 0.6875 -0.566406 0.78125 -0.453125 C 0.882812 -0.347656 1.039062 -0.296875 1.25 -0.296875 C 1.457031 -0.296875 1.625 -0.34375 1.75 -0.4375 C 1.875 -0.539062 1.9375 -0.664062 1.9375 -0.8125 C 1.9375 -0.957031 1.878906 -1.078125 1.765625 -1.171875 C 1.648438 -1.265625 1.492188 -1.351562 1.296875 -1.4375 C 1.097656 -1.519531 0.96875 -1.570312 0.90625 -1.59375 C 0.851562 -1.625 0.773438 -1.671875 0.671875 -1.734375 C 0.566406 -1.796875 0.492188 -1.859375 0.453125 -1.921875 C 0.328125 -2.078125 0.265625 -2.253906 0.265625 -2.453125 C 0.265625 -2.753906 0.375 -2.984375 0.59375 -3.140625 C 0.820312 -3.304688 1.097656 -3.390625 1.421875 -3.390625 C 1.742188 -3.390625 1.988281 -3.304688 2.15625 -3.140625 Z M 2.15625 -3.140625 "/></g></g><g style="fill:#0e004c;fill-opacity:1;"><g transform="translate(59.774634, 34.637762)"><path style="stroke:none" d=""/></g></g><g style="fill:#0e004c;fill-opacity:1;"><g transform="translate(61.074315, 34.637762)"><path style="stroke:none" d="M 3.125 -0.40625 C 3.1875 -0.40625 3.253906 -0.414062 3.328125 -0.4375 C 3.398438 -0.46875 3.445312 -0.5 3.46875 -0.53125 C 3.519531 -0.5 3.546875 -0.429688 3.546875 -0.328125 C 3.546875 -0.222656 3.503906 -0.128906 3.421875 -0.046875 C 3.335938 0.0351562 3.21875 0.078125 3.0625 0.078125 C 2.8125 0.078125 2.53125 -0.0234375 2.21875 -0.234375 C 1.945312 -0.015625 1.628906 0.09375 1.265625 0.09375 C 0.898438 0.09375 0.625 0.015625 0.4375 -0.140625 C 0.257812 -0.296875 0.171875 -0.5 0.171875 -0.75 C 0.171875 -1.132812 0.367188 -1.4375 0.765625 -1.65625 C 0.523438 -1.96875 0.40625 -2.234375 0.40625 -2.453125 C 0.40625 -2.679688 0.488281 -2.875 0.65625 -3.03125 C 0.820312 -3.1875 1.035156 -3.265625 1.296875 -3.265625 C 1.554688 -3.265625 1.757812 -3.203125 1.90625 -3.078125 C 2.0625 -2.953125 2.140625 -2.78125 2.140625 -2.5625 C 2.140625 -2.351562 2.070312 -2.171875 1.9375 -2.015625 C 1.800781 -1.859375 1.632812 -1.742188 1.4375 -1.671875 L 1.46875 -1.640625 C 1.726562 -1.328125 2 -1.054688 2.28125 -0.828125 C 2.363281 -0.953125 2.429688 -1.101562 2.484375 -1.28125 L 2.15625 -1.3125 C 2.132812 -1.519531 2.203125 -1.625 2.359375 -1.625 L 3.203125 -1.625 L 3.203125 -1.578125 C 3.203125 -1.410156 3.140625 -1.320312 3.015625 -1.3125 L 2.859375 -1.296875 C 2.785156 -1.035156 2.6875 -0.8125 2.5625 -0.625 C 2.789062 -0.476562 2.976562 -0.40625 3.125 -0.40625 Z M 1.625 -2.5625 C 1.625 -2.707031 1.59375 -2.8125 1.53125 -2.875 C 1.46875 -2.945312 1.390625 -2.984375 1.296875 -2.984375 C 1.210938 -2.984375 1.132812 -2.941406 1.0625 -2.859375 C 0.988281 -2.785156 0.953125 -2.691406 0.953125 -2.578125 C 0.953125 -2.398438 1.054688 -2.171875 1.265625 -1.890625 C 1.503906 -2.035156 1.625 -2.257812 1.625 -2.5625 Z M 1.90625 -0.46875 C 1.644531 -0.6875 1.332031 -1 0.96875 -1.40625 C 0.800781 -1.25 0.71875 -1.078125 0.71875 -0.890625 C 0.71875 -0.703125 0.773438 -0.554688 0.890625 -0.453125 C 1.015625 -0.359375 1.175781 -0.3125 1.375 -0.3125 C 1.570312 -0.3125 1.75 -0.363281 1.90625 -0.46875 Z M 1.90625 -0.46875 "/></g></g><g style="fill:#0e004c;fill-opacity:1;"><g transform="translate(64.682381, 34.637762)"><path style="stroke:none" d=""/></g></g><g style="fill:#0e004c;fill-opacity:1;"><g transform="translate(65.982062, 34.637762)"><path style="stroke:none" d="M 1.796875 -3.390625 C 2.078125 -3.390625 2.300781 -3.328125 2.46875 -3.203125 C 2.644531 -3.078125 2.734375 -2.925781 2.734375 -2.75 C 2.734375 -2.625 2.691406 -2.523438 2.609375 -2.453125 C 2.523438 -2.378906 2.40625 -2.34375 2.25 -2.34375 C 2.25 -2.757812 2.078125 -2.96875 1.734375 -2.96875 C 1.429688 -2.96875 1.195312 -2.847656 1.03125 -2.609375 C 0.875 -2.367188 0.796875 -2.039062 0.796875 -1.625 C 0.796875 -1.21875 0.875 -0.90625 1.03125 -0.6875 C 1.195312 -0.46875 1.445312 -0.359375 1.78125 -0.359375 C 2.125 -0.359375 2.425781 -0.457031 2.6875 -0.65625 C 2.738281 -0.625 2.765625 -0.570312 2.765625 -0.5 C 2.765625 -0.363281 2.648438 -0.234375 2.421875 -0.109375 C 2.191406 0.015625 1.925781 0.078125 1.625 0.078125 C 1.144531 0.078125 0.78125 -0.0664062 0.53125 -0.359375 C 0.289062 -0.660156 0.171875 -1.078125 0.171875 -1.609375 C 0.171875 -2.148438 0.304688 -2.582031 0.578125 -2.90625 C 0.859375 -3.226562 1.265625 -3.390625 1.796875 -3.390625 Z M 1.796875 -3.390625 "/></g></g><g style="fill:#0e004c;fill-opacity:1;"><g transform="translate(68.901492, 34.637762)"><path style="stroke:none" d="M 1.671875 -3 C 1.085938 -3 0.796875 -2.5625 0.796875 -1.6875 C 0.796875 -1.238281 0.867188 -0.894531 1.015625 -0.65625 C 1.160156 -0.425781 1.367188 -0.3125 1.640625 -0.3125 C 1.941406 -0.3125 2.164062 -0.425781 2.3125 -0.65625 C 2.457031 -0.882812 2.53125 -1.21875 2.53125 -1.65625 C 2.53125 -2.09375 2.457031 -2.425781 2.3125 -2.65625 C 2.164062 -2.882812 1.953125 -3 1.671875 -3 Z M 0.171875 -1.640625 C 0.171875 -2.179688 0.304688 -2.609375 0.578125 -2.921875 C 0.859375 -3.234375 1.234375 -3.390625 1.703125 -3.390625 C 2.179688 -3.390625 2.546875 -3.238281 2.796875 -2.9375 C 3.046875 -2.644531 3.171875 -2.222656 3.171875 -1.671875 C 3.171875 -1.128906 3.03125 -0.703125 2.75 -0.390625 C 2.46875 -0.078125 2.09375 0.078125 1.625 0.078125 C 1.15625 0.078125 0.796875 -0.0703125 0.546875 -0.375 C 0.296875 -0.675781 0.171875 -1.097656 0.171875 -1.640625 Z M 0.171875 -1.640625 "/></g></g><g style="fill:#0e004c;fill-opacity:1;"><g transform="translate(72.242832, 34.637762)"><path style="stroke:none" d="M 2.4375 -3.3125 L 3.28125 -3.3125 C 3.28125 -3.3125 3.28125 -3.300781 3.28125 -3.28125 C 3.28125 -3.101562 3.207031 -3.007812 3.0625 -3 L 2.921875 -2.984375 L 2.921875 -0.0625 C 2.828125 -0.0195312 2.703125 0 2.546875 0 L 0.90625 -2.453125 L 0.90625 -0.34375 L 1.265625 -0.3125 C 1.273438 -0.101562 1.203125 0 1.046875 0 L 0.1875 0 L 0.1875 -0.03125 C 0.1875 -0.21875 0.257812 -0.316406 0.40625 -0.328125 L 0.546875 -0.328125 L 0.546875 -2.96875 L 0.203125 -3 C 0.191406 -3.019531 0.191406 -3.066406 0.203125 -3.140625 C 0.234375 -3.253906 0.304688 -3.3125 0.421875 -3.3125 L 1.046875 -3.3125 L 2.5625 -1.0625 L 2.5625 -2.96875 L 2.21875 -3 C 2.195312 -3.207031 2.269531 -3.3125 2.4375 -3.3125 Z M 2.4375 -3.3125 "/></g></g><g style="fill:#0e004c;fill-opacity:1;"><g transform="translate(75.60842, 34.637762)"><path style="stroke:none" d="M 2.15625 -3.140625 C 2.25 -3.054688 2.296875 -2.941406 2.296875 -2.796875 C 2.296875 -2.660156 2.253906 -2.554688 2.171875 -2.484375 C 2.085938 -2.410156 1.976562 -2.382812 1.84375 -2.40625 C 1.84375 -2.8125 1.660156 -3.015625 1.296875 -3.015625 C 1.140625 -3.015625 1.007812 -2.976562 0.90625 -2.90625 C 0.8125 -2.832031 0.765625 -2.734375 0.765625 -2.609375 C 0.765625 -2.515625 0.785156 -2.441406 0.828125 -2.390625 C 0.878906 -2.347656 0.914062 -2.316406 0.9375 -2.296875 C 0.957031 -2.273438 1 -2.25 1.0625 -2.21875 C 1.125 -2.1875 1.171875 -2.160156 1.203125 -2.140625 C 1.234375 -2.128906 1.289062 -2.101562 1.375 -2.0625 C 1.457031 -2.03125 1.515625 -2.007812 1.546875 -2 C 1.878906 -1.851562 2.109375 -1.710938 2.234375 -1.578125 C 2.367188 -1.441406 2.4375 -1.257812 2.4375 -1.03125 C 2.4375 -0.695312 2.320312 -0.425781 2.09375 -0.21875 C 1.863281 -0.0195312 1.554688 0.078125 1.171875 0.078125 C 0.773438 0.078125 0.476562 -0.0078125 0.28125 -0.1875 C 0.175781 -0.289062 0.125 -0.410156 0.125 -0.546875 C 0.125 -0.679688 0.164062 -0.785156 0.25 -0.859375 C 0.332031 -0.941406 0.460938 -0.984375 0.640625 -0.984375 C 0.640625 -0.742188 0.6875 -0.566406 0.78125 -0.453125 C 0.882812 -0.347656 1.039062 -0.296875 1.25 -0.296875 C 1.457031 -0.296875 1.625 -0.34375 1.75 -0.4375 C 1.875 -0.539062 1.9375 -0.664062 1.9375 -0.8125 C 1.9375 -0.957031 1.878906 -1.078125 1.765625 -1.171875 C 1.648438 -1.265625 1.492188 -1.351562 1.296875 -1.4375 C 1.097656 -1.519531 0.96875 -1.570312 0.90625 -1.59375 C 0.851562 -1.625 0.773438 -1.671875 0.671875 -1.734375 C 0.566406 -1.796875 0.492188 -1.859375 0.453125 -1.921875 C 0.328125 -2.078125 0.265625 -2.253906 0.265625 -2.453125 C 0.265625 -2.753906 0.375 -2.984375 0.59375 -3.140625 C 0.820312 -3.304688 1.097656 -3.390625 1.421875 -3.390625 C 1.742188 -3.390625 1.988281 -3.304688 2.15625 -3.140625 Z M 2.15625 -3.140625 "/></g></g><g style="fill:#0e004c;fill-opacity:1;"><g transform="translate(78.193231, 34.637762)"><path style="stroke:none" d="M 2.3125 -3.3125 L 3.1875 -3.3125 C 3.1875 -3.3125 3.1875 -3.300781 3.1875 -3.28125 C 3.1875 -3.101562 3.117188 -3.007812 2.984375 -3 L 2.84375 -2.984375 L 2.84375 -1.40625 C 2.84375 -0.894531 2.738281 -0.519531 2.53125 -0.28125 C 2.320312 -0.0390625 2.015625 0.078125 1.609375 0.078125 C 1.210938 0.078125 0.910156 -0.03125 0.703125 -0.25 C 0.503906 -0.476562 0.40625 -0.863281 0.40625 -1.40625 L 0.40625 -2.96875 L 0.046875 -3 C 0.0351562 -3.019531 0.0390625 -3.066406 0.0625 -3.140625 C 0.09375 -3.253906 0.160156 -3.3125 0.265625 -3.3125 L 1.359375 -3.3125 L 1.359375 -3.28125 C 1.359375 -3.101562 1.285156 -3.007812 1.140625 -3 L 1 -2.984375 L 1 -1.328125 C 1 -0.972656 1.050781 -0.710938 1.15625 -0.546875 C 1.257812 -0.390625 1.4375 -0.3125 1.6875 -0.3125 C 2.195312 -0.3125 2.453125 -0.632812 2.453125 -1.28125 L 2.453125 -2.96875 L 2.109375 -3 C 2.085938 -3.207031 2.15625 -3.3125 2.3125 -3.3125 Z M 2.3125 -3.3125 "/></g></g><g style="fill:#0e004c;fill-opacity:1;"><g transform="translate(81.43758, 34.637762)"><path style="stroke:none" d="M 2.59375 -0.859375 L 2.59375 0 L 0.1875 0 L 0.1875 -0.03125 C 0.1875 -0.21875 0.257812 -0.316406 0.40625 -0.328125 L 0.546875 -0.328125 L 0.546875 -2.96875 L 0.203125 -3 C 0.191406 -3.019531 0.195312 -3.066406 0.21875 -3.140625 C 0.238281 -3.253906 0.304688 -3.3125 0.421875 -3.3125 L 1.609375 -3.3125 L 1.609375 -3.28125 C 1.609375 -3.144531 1.570312 -3.054688 1.5 -3.015625 C 1.46875 -3.003906 1.4375 -3 1.40625 -3 L 1.15625 -2.984375 L 1.15625 -0.34375 L 2.203125 -0.375 L 2.28125 -1.046875 C 2.488281 -1.066406 2.59375 -1.003906 2.59375 -0.859375 Z M 2.59375 -0.859375 "/></g></g><g style="fill:#0e004c;fill-opacity:1;"><g transform="translate(84.148477, 34.637762)"><path style="stroke:none" d="M 0.09375 -3.3125 L 2.984375 -3.3125 L 2.984375 -2.640625 C 2.984375 -2.566406 2.960938 -2.515625 2.921875 -2.484375 C 2.878906 -2.453125 2.84375 -2.429688 2.8125 -2.421875 C 2.78125 -2.421875 2.734375 -2.421875 2.671875 -2.421875 L 2.625 -2.953125 L 1.84375 -2.953125 L 1.84375 -0.34375 L 2.234375 -0.3125 C 2.253906 -0.101562 2.179688 0 2.015625 0 L 0.828125 0 C 0.828125 0 0.828125 -0.0078125 0.828125 -0.03125 C 0.828125 -0.21875 0.898438 -0.316406 1.046875 -0.328125 L 1.234375 -0.328125 L 1.234375 -2.953125 L 0.453125 -2.953125 L 0.40625 -2.421875 C 0.34375 -2.421875 0.296875 -2.421875 0.265625 -2.421875 C 0.234375 -2.429688 0.195312 -2.453125 0.15625 -2.484375 C 0.113281 -2.515625 0.09375 -2.566406 0.09375 -2.640625 Z M 0.09375 -3.3125 "/></g></g><g style="fill:#0e004c;fill-opacity:1;"><g transform="translate(87.232789, 34.637762)"><path style="stroke:none" d="M 2.90625 0 L 1.765625 0 L 1.765625 -0.03125 C 1.765625 -0.21875 1.835938 -0.316406 1.984375 -0.328125 L 2.125 -0.328125 L 1.9375 -1.03125 L 1.0625 -1.03125 L 0.859375 -0.34375 L 1.25 -0.3125 C 1.257812 -0.289062 1.257812 -0.25 1.25 -0.1875 C 1.21875 -0.0625 1.144531 0 1.03125 0 L 0.0625 0 L 0.0625 -0.03125 C 0.0625 -0.21875 0.132812 -0.316406 0.28125 -0.328125 L 0.453125 -0.328125 L 1.390625 -3.3125 C 1.523438 -3.332031 1.6875 -3.332031 1.875 -3.3125 L 2.78125 -0.34375 L 3.125 -0.3125 C 3.132812 -0.289062 3.132812 -0.25 3.125 -0.1875 C 3.09375 -0.0625 3.019531 0 2.90625 0 Z M 1.15625 -1.359375 L 1.84375 -1.359375 L 1.515625 -2.59375 Z M 1.15625 -1.359375 "/></g></g><g style="fill:#0e004c;fill-opacity:1;"><g transform="translate(90.433499, 34.637762)"><path style="stroke:none" d="M 2.4375 -3.3125 L 3.28125 -3.3125 C 3.28125 -3.3125 3.28125 -3.300781 3.28125 -3.28125 C 3.28125 -3.101562 3.207031 -3.007812 3.0625 -3 L 2.921875 -2.984375 L 2.921875 -0.0625 C 2.828125 -0.0195312 2.703125 0 2.546875 0 L 0.90625 -2.453125 L 0.90625 -0.34375 L 1.265625 -0.3125 C 1.273438 -0.101562 1.203125 0 1.046875 0 L 0.1875 0 L 0.1875 -0.03125 C 0.1875 -0.21875 0.257812 -0.316406 0.40625 -0.328125 L 0.546875 -0.328125 L 0.546875 -2.96875 L 0.203125 -3 C 0.191406 -3.019531 0.191406 -3.066406 0.203125 -3.140625 C 0.234375 -3.253906 0.304688 -3.3125 0.421875 -3.3125 L 1.046875 -3.3125 L 2.5625 -1.0625 L 2.5625 -2.96875 L 2.21875 -3 C 2.195312 -3.207031 2.269531 -3.3125 2.4375 -3.3125 Z M 2.4375 -3.3125 "/></g></g><g style="fill:#0e004c;fill-opacity:1;"><g transform="translate(93.799083, 34.637762)"><path style="stroke:none" d="M 0.09375 -3.3125 L 2.984375 -3.3125 L 2.984375 -2.640625 C 2.984375 -2.566406 2.960938 -2.515625 2.921875 -2.484375 C 2.878906 -2.453125 2.84375 -2.429688 2.8125 -2.421875 C 2.78125 -2.421875 2.734375 -2.421875 2.671875 -2.421875 L 2.625 -2.953125 L 1.84375 -2.953125 L 1.84375 -0.34375 L 2.234375 -0.3125 C 2.253906 -0.101562 2.179688 0 2.015625 0 L 0.828125 0 C 0.828125 0 0.828125 -0.0078125 0.828125 -0.03125 C 0.828125 -0.21875 0.898438 -0.316406 1.046875 -0.328125 L 1.234375 -0.328125 L 1.234375 -2.953125 L 0.453125 -2.953125 L 0.40625 -2.421875 C 0.34375 -2.421875 0.296875 -2.421875 0.265625 -2.421875 C 0.234375 -2.429688 0.195312 -2.453125 0.15625 -2.484375 C 0.113281 -2.515625 0.09375 -2.566406 0.09375 -2.640625 Z M 0.09375 -3.3125 "/></g></g><g style="fill:#0e004c;fill-opacity:1;"><g transform="translate(96.883401, 34.637762)"><path style="stroke:none" d="M 2.15625 -3.140625 C 2.25 -3.054688 2.296875 -2.941406 2.296875 -2.796875 C 2.296875 -2.660156 2.253906 -2.554688 2.171875 -2.484375 C 2.085938 -2.410156 1.976562 -2.382812 1.84375 -2.40625 C 1.84375 -2.8125 1.660156 -3.015625 1.296875 -3.015625 C 1.140625 -3.015625 1.007812 -2.976562 0.90625 -2.90625 C 0.8125 -2.832031 0.765625 -2.734375 0.765625 -2.609375 C 0.765625 -2.515625 0.785156 -2.441406 0.828125 -2.390625 C 0.878906 -2.347656 0.914062 -2.316406 0.9375 -2.296875 C 0.957031 -2.273438 1 -2.25 1.0625 -2.21875 C 1.125 -2.1875 1.171875 -2.160156 1.203125 -2.140625 C 1.234375 -2.128906 1.289062 -2.101562 1.375 -2.0625 C 1.457031 -2.03125 1.515625 -2.007812 1.546875 -2 C 1.878906 -1.851562 2.109375 -1.710938 2.234375 -1.578125 C 2.367188 -1.441406 2.4375 -1.257812 2.4375 -1.03125 C 2.4375 -0.695312 2.320312 -0.425781 2.09375 -0.21875 C 1.863281 -0.0195312 1.554688 0.078125 1.171875 0.078125 C 0.773438 0.078125 0.476562 -0.0078125 0.28125 -0.1875 C 0.175781 -0.289062 0.125 -0.410156 0.125 -0.546875 C 0.125 -0.679688 0.164062 -0.785156 0.25 -0.859375 C 0.332031 -0.941406 0.460938 -0.984375 0.640625 -0.984375 C 0.640625 -0.742188 0.6875 -0.566406 0.78125 -0.453125 C 0.882812 -0.347656 1.039062 -0.296875 1.25 -0.296875 C 1.457031 -0.296875 1.625 -0.34375 1.75 -0.4375 C 1.875 -0.539062 1.9375 -0.664062 1.9375 -0.8125 C 1.9375 -0.957031 1.878906 -1.078125 1.765625 -1.171875 C 1.648438 -1.265625 1.492188 -1.351562 1.296875 -1.4375 C 1.097656 -1.519531 0.96875 -1.570312 0.90625 -1.59375 C 0.851562 -1.625 0.773438 -1.671875 0.671875 -1.734375 C 0.566406 -1.796875 0.492188 -1.859375 0.453125 -1.921875 C 0.328125 -2.078125 0.265625 -2.253906 0.265625 -2.453125 C 0.265625 -2.753906 0.375 -2.984375 0.59375 -3.140625 C 0.820312 -3.304688 1.097656 -3.390625 1.421875 -3.390625 C 1.742188 -3.390625 1.988281 -3.304688 2.15625 -3.140625 Z M 2.15625 -3.140625 "/></g></g><path style="fill:none;stroke-width:4;stroke-linecap:butt;stroke-linejoin:miter;stroke:#0e004c;stroke-opacity:1;stroke-miterlimit:4;" d="M -0.00338195 1.995774 L 313.336364 1.995774 " transform="matrix(0.213825,0,0,0.213825,32.078848,28.327159)"/><g clip-rule="nonzero" clip-path="url(#225033b1f9)"><path style=" stroke:none;fill-rule:evenodd;fill:#0e004c;fill-opacity:1;" d="M 93.664062 2.839844 C 93.65625 2.839844 93.617188 2.964844 93.582031 3.121094 C 93.546875 3.277344 93.496094 3.496094 93.46875 3.609375 C 93.355469 4.089844 93.308594 4.285156 93.261719 4.488281 C 93.253906 4.53125 93.226562 4.648438 93.203125 4.746094 C 93.179688 4.84375 93.15625 4.960938 93.144531 5.003906 C 93.09375 5.226562 93.042969 5.445312 93.027344 5.5 C 93.003906 5.570312 93 5.632812 93.019531 5.621094 C 93.03125 5.617188 93.085938 5.589844 93.148438 5.5625 C 93.210938 5.53125 93.3125 5.484375 93.378906 5.457031 C 93.441406 5.425781 93.667969 5.320312 93.886719 5.222656 C 94.101562 5.121094 94.332031 5.015625 94.394531 4.988281 C 94.457031 4.957031 94.558594 4.910156 94.621094 4.882812 C 94.679688 4.855469 94.734375 4.835938 94.738281 4.84375 C 94.746094 4.847656 94.71875 4.976562 94.675781 5.125 C 94.636719 5.277344 94.511719 5.742188 94.398438 6.160156 C 94.285156 6.578125 94.179688 6.96875 94.164062 7.03125 C 94.125 7.160156 93.84375 8.210938 93.480469 9.550781 C 93.339844 10.082031 93.179688 10.664062 93.132812 10.839844 C 93.085938 11.015625 93.046875 11.167969 93.046875 11.179688 C 93.046875 11.199219 93.335938 11.207031 94.394531 11.214844 L 95.039062 11.21875 L 95.050781 11.15625 C 95.054688 11.121094 95.074219 10.996094 95.089844 10.882812 C 95.109375 10.769531 95.132812 10.621094 95.140625 10.558594 C 95.152344 10.492188 95.246094 9.875 95.347656 9.183594 C 95.453125 8.492188 95.550781 7.839844 95.566406 7.730469 C 95.625 7.351562 95.675781 7.027344 95.703125 6.828125 C 95.71875 6.714844 95.746094 6.542969 95.761719 6.445312 C 95.777344 6.347656 95.839844 5.925781 95.902344 5.503906 C 95.96875 5.082031 96.023438 4.742188 96.027344 4.746094 C 96.03125 4.75 96.242188 6.101562 96.328125 6.695312 C 96.335938 6.765625 96.363281 6.941406 96.386719 7.089844 C 96.410156 7.234375 96.433594 7.414062 96.445312 7.484375 C 96.457031 7.554688 96.476562 7.695312 96.492188 7.800781 C 96.507812 7.902344 96.628906 8.703125 96.761719 9.578125 C 96.894531 10.453125 97.003906 11.183594 97.011719 11.199219 C 97.019531 11.222656 97.167969 11.222656 98.011719 11.214844 C 98.554688 11.207031 99.003906 11.195312 99.007812 11.191406 C 99.011719 11.191406 99.007812 11.160156 98.996094 11.128906 C 98.988281 11.097656 98.875 10.683594 98.746094 10.210938 C 98.621094 9.738281 98.4375 9.0625 98.34375 8.710938 C 98.246094 8.355469 98.046875 7.617188 97.898438 7.070312 C 97.484375 5.539062 97.332031 4.964844 97.320312 4.941406 C 97.304688 4.898438 97.339844 4.910156 97.546875 5.003906 C 98.074219 5.25 98.171875 5.296875 98.304688 5.355469 C 98.507812 5.445312 98.667969 5.523438 98.796875 5.585938 C 98.867188 5.617188 98.929688 5.644531 98.941406 5.644531 C 98.960938 5.644531 98.957031 5.59375 98.910156 5.417969 C 98.878906 5.292969 98.816406 5.039062 98.738281 4.6875 C 98.730469 4.644531 98.703125 4.53125 98.679688 4.441406 C 98.660156 4.347656 98.628906 4.210938 98.609375 4.140625 C 98.535156 3.804688 98.492188 3.621094 98.414062 3.292969 C 98.390625 3.179688 98.355469 3.039062 98.34375 2.984375 C 98.332031 2.925781 98.3125 2.878906 98.300781 2.878906 C 98.277344 2.878906 98.214844 2.914062 97.492188 3.324219 C 96.941406 3.636719 96.835938 3.695312 96.648438 3.800781 C 96.597656 3.828125 96.464844 3.902344 96.355469 3.964844 C 96.246094 4.027344 96.125 4.097656 96.082031 4.121094 L 96.003906 4.164062 L 95.902344 4.105469 C 95.847656 4.074219 95.769531 4.027344 95.722656 4.003906 C 95.679688 3.980469 95.605469 3.9375 95.554688 3.910156 C 95.507812 3.882812 95.183594 3.699219 94.835938 3.5 C 94.128906 3.101562 94.050781 3.058594 93.894531 2.972656 C 93.835938 2.9375 93.761719 2.894531 93.734375 2.875 C 93.707031 2.855469 93.675781 2.839844 93.664062 2.839844 Z M 93.664062 2.839844 "/></g><g clip-rule="nonzero" clip-path="url(#3d3e3daab9)"><path style="fill:none;stroke-width:0.596;stroke-linecap:round;stroke-linejoin:round;stroke:#000000;stroke-opacity:1;stroke-miterlimit:4;" d="M 74.42236 126.095404 C 74.394621 126.095404 74.255927 126.539227 74.131102 127.094005 C 74.006277 127.648783 73.825974 128.425472 73.728888 128.827686 C 73.326674 130.533629 73.16024 131.227101 72.993807 131.948313 C 72.966068 132.100877 72.868982 132.51696 72.785765 132.863697 C 72.702548 133.210433 72.619332 133.626516 72.577723 133.77908 C 72.39742 134.569639 72.217117 135.346328 72.16164 135.540501 C 72.078423 135.790151 72.064553 136.012062 72.133901 135.970454 C 72.175509 135.956584 72.369681 135.859498 72.591593 135.762412 C 72.813504 135.651456 73.17411 135.485023 73.40989 135.387937 C 73.631802 135.276981 74.43623 134.902506 75.212919 134.55577 C 75.975739 134.195164 76.794036 133.820689 77.015948 133.723603 C 77.237859 133.612647 77.598465 133.446214 77.820376 133.349127 C 78.028418 133.252041 78.22259 133.182694 78.236459 133.210433 C 78.264198 133.224302 78.167112 133.681994 78.014548 134.209033 C 77.875854 134.749942 77.432031 136.400407 77.029817 137.884438 C 76.627603 139.368469 76.253128 140.755415 76.19765 140.977326 C 76.058956 141.435018 75.060355 145.1659 73.770496 149.923122 C 73.271196 151.809367 72.702548 153.875916 72.536115 154.500041 C 72.369681 155.124166 72.230987 155.665075 72.230987 155.706683 C 72.230987 155.77603 73.257326 155.803769 77.015948 155.831508 L 79.304407 155.845378 L 79.346016 155.623466 C 79.359885 155.498641 79.429232 155.054819 79.48471 154.652605 C 79.554057 154.250391 79.637274 153.723352 79.665013 153.50144 C 79.706621 153.26566 80.039488 151.074286 80.400094 148.619393 C 80.774569 146.164501 81.121305 143.848302 81.176783 143.459958 C 81.384825 142.114621 81.565128 140.963456 81.662214 140.256114 C 81.717692 139.8539 81.814778 139.243644 81.870256 138.896908 C 81.925733 138.550172 82.147645 137.052271 82.369556 135.55437 C 82.605337 134.056469 82.799509 132.849827 82.813378 132.863697 C 82.827248 132.877566 83.576198 137.676396 83.881326 139.784553 C 83.909065 140.034203 84.006151 140.658328 84.089368 141.185368 C 84.172585 141.698537 84.255801 142.336532 84.29741 142.586182 C 84.339018 142.835832 84.408365 143.335132 84.463843 143.709608 C 84.519321 144.070213 84.949274 146.913451 85.420835 150.020208 C 85.892397 153.126965 86.280741 155.720553 86.30848 155.77603 C 86.336219 155.859247 86.863258 155.859247 89.85906 155.831508 C 91.786913 155.803769 93.3819 155.762161 93.39577 155.748292 C 93.409639 155.748292 93.39577 155.637336 93.354161 155.52638 C 93.326423 155.415425 92.924208 153.945263 92.466517 152.267059 C 92.022694 150.588856 91.37083 148.189441 91.037963 146.94119 C 90.691227 145.67907 89.983885 143.057743 89.456846 141.11602 C 87.986684 135.679195 87.445775 133.640386 87.404167 133.557169 C 87.348689 133.404605 87.473514 133.446214 88.208595 133.77908 C 90.080971 134.652856 90.427707 134.819289 90.899269 135.027331 C 91.62048 135.346328 92.189128 135.623717 92.646819 135.845629 C 92.89647 135.956584 93.118381 136.05367 93.159989 136.05367 C 93.229336 136.05367 93.215467 135.873368 93.049034 135.249242 C 92.938078 134.80542 92.716167 133.903906 92.438778 132.655655 C 92.411039 132.503091 92.313953 132.100877 92.230736 131.781879 C 92.161389 131.449013 92.050433 130.963582 91.981086 130.713932 C 91.717566 129.521159 91.565002 128.869295 91.287613 127.704261 C 91.204396 127.302047 91.079571 126.802746 91.037963 126.608574 C 90.996355 126.400532 90.927007 126.234099 90.885399 126.234099 C 90.802182 126.234099 90.580271 126.358924 88.014423 127.815216 C 86.05883 128.924772 85.684355 129.132814 85.018621 129.507289 C 84.838318 129.604376 84.366757 129.867895 83.978412 130.089806 C 83.590068 130.311718 83.160115 130.561368 83.007551 130.644584 L 82.730162 130.797148 L 82.369556 130.589107 C 82.175384 130.478151 81.897995 130.311718 81.731561 130.228501 C 81.578997 130.145284 81.315478 129.99272 81.135175 129.895634 C 80.968741 129.798548 79.817577 129.146684 78.583196 128.439342 C 76.072825 127.024658 75.795436 126.872094 75.240658 126.566966 C 75.032616 126.442141 74.769097 126.289577 74.67201 126.220229 C 74.574924 126.150882 74.463969 126.095404 74.42236 126.095404 Z M 74.42236 126.095404 " transform="matrix(0.281644,0,0,0.281644,72.703439,-32.67419)"/></g></g></svg>