<svg xmlns="http://www.w3.org/2000/svg" xmlns:xlink="http://www.w3.org/1999/xlink" width="180" zoomAndPan="magnify" viewBox="0 0 135 37.5" height="50" preserveAspectRatio="xMidYMid meet" version="1.2"><defs><clipPath id="431da0e077"><path d="M 0.886719 0 L 134.109375 0 L 134.109375 37.007812 L 0.886719 37.007812 Z M 0.886719 0 "/></clipPath><clipPath id="700a432ddd"><path d="M 91.203125 0.667969 L 104.867188 0.667969 L 104.867188 14.539062 L 91.203125 14.539062 Z M 91.203125 0.667969 "/></clipPath><clipPath id="cefb535337"><path d="M 94.683594 2.5 L 101.347656 2.5 L 101.347656 12 L 94.683594 12 Z M 94.683594 2.5 "/></clipPath></defs><g id="ad1f4512cb"><g clip-rule="nonzero" clip-path="url(#431da0e077)"><path style=" stroke:none;fill-rule:nonzero;fill:#ffffff;fill-opacity:1;" d="M 0.886719 0 L 134.113281 0 L 134.113281 37.007812 L 0.886719 37.007812 Z M 0.886719 0 "/><path style=" stroke:none;fill-rule:nonzero;fill:#0e004c;fill-opacity:1;" d="M 0.886719 0 L 134.113281 0 L 134.113281 37.007812 L 0.886719 37.007812 Z M 0.886719 0 "/></g><g style="fill:#ffffff;fill-opacity:1;"><g transform="translate(54.311471, 26.612548)"><path style="stroke:none" d="M 6.234375 -11.328125 C 7.335938 -11.328125 8.304688 -11.101562 9.140625 -10.65625 C 9.972656 -10.207031 10.617188 -9.5625 11.078125 -8.71875 C 11.535156 -7.875 11.765625 -6.847656 11.765625 -5.640625 C 11.765625 -4.472656 11.53125 -3.445312 11.0625 -2.5625 C 10.59375 -1.6875 9.9375 -1.003906 9.09375 -0.515625 C 8.25 -0.0234375 7.289062 0.21875 6.21875 0.21875 C 5.101562 0.21875 4.128906 -0.00390625 3.296875 -0.453125 C 2.472656 -0.898438 1.828125 -1.546875 1.359375 -2.390625 C 0.898438 -3.242188 0.671875 -4.265625 0.671875 -5.453125 C 0.671875 -6.628906 0.910156 -7.65625 1.390625 -8.53125 C 1.867188 -9.414062 2.519531 -10.101562 3.34375 -10.59375 C 4.175781 -11.082031 5.140625 -11.328125 6.234375 -11.328125 Z M 6.171875 -11.046875 C 5.578125 -11.046875 5.0625 -10.804688 4.625 -10.328125 C 4.195312 -9.859375 3.863281 -9.210938 3.625 -8.390625 C 3.394531 -7.566406 3.28125 -6.609375 3.28125 -5.515625 C 3.28125 -4.410156 3.410156 -3.445312 3.671875 -2.625 C 3.941406 -1.800781 4.300781 -1.164062 4.75 -0.71875 C 5.207031 -0.28125 5.71875 -0.0625 6.28125 -0.0625 C 6.863281 -0.0625 7.367188 -0.296875 7.796875 -0.765625 C 8.234375 -1.234375 8.566406 -1.882812 8.796875 -2.71875 C 9.035156 -3.550781 9.15625 -4.503906 9.15625 -5.578125 C 9.15625 -6.703125 9.019531 -7.671875 8.75 -8.484375 C 8.488281 -9.296875 8.128906 -9.925781 7.671875 -10.375 C 7.222656 -10.820312 6.722656 -11.046875 6.171875 -11.046875 Z M 6.171875 -11.046875 "/></g></g><g style="fill:#ffffff;fill-opacity:1;"><g transform="translate(68.983895, 26.612548)"><path style="stroke:none" d="M 5.46875 -11.109375 L 5.46875 -10.796875 C 5.113281 -10.785156 4.84375 -10.742188 4.65625 -10.671875 C 4.476562 -10.609375 4.359375 -10.484375 4.296875 -10.296875 C 4.234375 -10.117188 4.203125 -9.832031 4.203125 -9.4375 L 4.203125 -1.46875 C 4.203125 -1.144531 4.222656 -0.90625 4.265625 -0.75 C 4.316406 -0.59375 4.410156 -0.488281 4.546875 -0.4375 C 4.691406 -0.382812 4.90625 -0.359375 5.1875 -0.359375 L 5.96875 -0.359375 C 6.320312 -0.359375 6.65625 -0.441406 6.96875 -0.609375 C 7.28125 -0.773438 7.5625 -1.007812 7.8125 -1.3125 C 8.0625 -1.625 8.269531 -1.992188 8.4375 -2.421875 C 8.601562 -2.859375 8.726562 -3.335938 8.8125 -3.859375 L 9.171875 -3.859375 C 9.140625 -3.503906 9.125 -3.046875 9.125 -2.484375 C 9.125 -2.242188 9.128906 -1.890625 9.140625 -1.421875 C 9.148438 -0.960938 9.179688 -0.488281 9.234375 0 C 8.703125 -0.0195312 8.101562 -0.03125 7.4375 -0.03125 C 6.769531 -0.0390625 6.171875 -0.046875 5.640625 -0.046875 C 5.378906 -0.046875 5.046875 -0.046875 4.640625 -0.046875 C 4.234375 -0.046875 3.796875 -0.0390625 3.328125 -0.03125 C 2.859375 -0.03125 2.378906 -0.0234375 1.890625 -0.015625 C 1.410156 -0.015625 0.957031 -0.0078125 0.53125 0 L 0.53125 -0.3125 C 0.863281 -0.332031 1.113281 -0.375 1.28125 -0.4375 C 1.445312 -0.5 1.554688 -0.625 1.609375 -0.8125 C 1.671875 -1 1.703125 -1.28125 1.703125 -1.65625 L 1.703125 -9.4375 C 1.703125 -9.832031 1.671875 -10.117188 1.609375 -10.296875 C 1.554688 -10.484375 1.441406 -10.609375 1.265625 -10.671875 C 1.097656 -10.742188 0.851562 -10.785156 0.53125 -10.796875 L 0.53125 -11.109375 C 0.789062 -11.097656 1.144531 -11.085938 1.59375 -11.078125 C 2.039062 -11.066406 2.515625 -11.0625 3.015625 -11.0625 C 3.472656 -11.0625 3.921875 -11.066406 4.359375 -11.078125 C 4.804688 -11.085938 5.175781 -11.097656 5.46875 -11.109375 Z M 5.46875 -11.109375 "/></g></g><g style="fill:#ffffff;fill-opacity:1;"><g transform="translate(79.639076, 26.612548)"><path style="stroke:none" d="M 10.640625 -11.109375 L 10.640625 -10.796875 C 10.410156 -10.710938 10.164062 -10.53125 9.90625 -10.25 C 9.644531 -9.96875 9.40625 -9.523438 9.1875 -8.921875 L 5.875 0.03125 C 5.789062 0.0195312 5.703125 0.015625 5.609375 0.015625 C 5.515625 0.015625 5.421875 0.015625 5.328125 0.015625 C 5.242188 0.015625 5.15625 0.015625 5.0625 0.015625 C 4.96875 0.015625 4.878906 0.0195312 4.796875 0.03125 L 0.796875 -9.78125 C 0.648438 -10.164062 0.488281 -10.425781 0.3125 -10.5625 C 0.132812 -10.707031 -0.03125 -10.785156 -0.1875 -10.796875 L -0.1875 -11.109375 C 0.125 -11.097656 0.488281 -11.085938 0.90625 -11.078125 C 1.332031 -11.066406 1.765625 -11.0625 2.203125 -11.0625 C 2.679688 -11.0625 3.128906 -11.066406 3.546875 -11.078125 C 3.972656 -11.085938 4.316406 -11.097656 4.578125 -11.109375 L 4.578125 -10.796875 C 4.242188 -10.785156 3.984375 -10.742188 3.796875 -10.671875 C 3.609375 -10.609375 3.503906 -10.484375 3.484375 -10.296875 C 3.460938 -10.117188 3.523438 -9.84375 3.671875 -9.46875 L 6.53125 -2.21875 L 6.203125 -1.8125 L 8.359375 -7.65625 C 8.640625 -8.4375 8.785156 -9.050781 8.796875 -9.5 C 8.804688 -9.957031 8.695312 -10.285156 8.46875 -10.484375 C 8.238281 -10.679688 7.910156 -10.785156 7.484375 -10.796875 L 7.484375 -11.109375 C 7.835938 -11.097656 8.171875 -11.085938 8.484375 -11.078125 C 8.796875 -11.066406 9.113281 -11.0625 9.4375 -11.0625 C 9.664062 -11.0625 9.882812 -11.066406 10.09375 -11.078125 C 10.300781 -11.085938 10.484375 -11.097656 10.640625 -11.109375 Z M 10.640625 -11.109375 "/></g></g><g style="fill:#ffffff;fill-opacity:1;"><g transform="translate(91.486871, 26.612548)"><path style="stroke:none" d="M 2.125 -2.203125 C 2.53125 -2.203125 2.851562 -2.09375 3.09375 -1.875 C 3.332031 -1.65625 3.453125 -1.359375 3.453125 -0.984375 C 3.453125 -0.609375 3.332031 -0.3125 3.09375 -0.09375 C 2.851562 0.113281 2.53125 0.21875 2.125 0.21875 C 1.707031 0.21875 1.378906 0.113281 1.140625 -0.09375 C 0.898438 -0.3125 0.78125 -0.609375 0.78125 -0.984375 C 0.78125 -1.359375 0.898438 -1.65625 1.140625 -1.875 C 1.378906 -2.09375 1.707031 -2.203125 2.125 -2.203125 Z M 2.125 -2.203125 "/></g></g><g style="fill:#ffffff;fill-opacity:1;"><g transform="translate(39.424792, 26.900107)"><path style="stroke:none" d="M 6.609375 -16.78125 C 7.523438 -16.78125 8.226562 -16.679688 8.71875 -16.484375 C 9.21875 -16.285156 9.644531 -16.078125 10 -15.859375 C 10.1875 -15.753906 10.335938 -15.675781 10.453125 -15.625 C 10.566406 -15.570312 10.679688 -15.546875 10.796875 -15.546875 C 10.953125 -15.546875 11.0625 -15.628906 11.125 -15.796875 C 11.195312 -15.960938 11.257812 -16.21875 11.3125 -16.5625 L 11.84375 -16.5625 C 11.820312 -16.269531 11.800781 -15.914062 11.78125 -15.5 C 11.757812 -15.09375 11.742188 -14.554688 11.734375 -13.890625 C 11.722656 -13.222656 11.71875 -12.347656 11.71875 -11.265625 L 11.1875 -11.265625 C 11.125 -12.066406 10.9375 -12.847656 10.625 -13.609375 C 10.320312 -14.367188 9.882812 -14.992188 9.3125 -15.484375 C 8.75 -15.972656 8.054688 -16.21875 7.234375 -16.21875 C 6.492188 -16.21875 5.878906 -16.003906 5.390625 -15.578125 C 4.910156 -15.160156 4.671875 -14.582031 4.671875 -13.84375 C 4.671875 -13.21875 4.828125 -12.6875 5.140625 -12.25 C 5.453125 -11.8125 5.90625 -11.378906 6.5 -10.953125 C 7.101562 -10.535156 7.828125 -10.035156 8.671875 -9.453125 C 9.421875 -8.960938 10.085938 -8.476562 10.671875 -8 C 11.265625 -7.519531 11.738281 -6.976562 12.09375 -6.375 C 12.457031 -5.769531 12.640625 -5.050781 12.640625 -4.21875 C 12.640625 -3.1875 12.367188 -2.335938 11.828125 -1.671875 C 11.296875 -1.003906 10.59375 -0.503906 9.71875 -0.171875 C 8.851562 0.160156 7.898438 0.328125 6.859375 0.328125 C 5.898438 0.328125 5.132812 0.234375 4.5625 0.046875 C 3.988281 -0.140625 3.507812 -0.332031 3.125 -0.53125 C 2.78125 -0.75 2.515625 -0.859375 2.328125 -0.859375 C 2.171875 -0.859375 2.054688 -0.769531 1.984375 -0.59375 C 1.921875 -0.425781 1.863281 -0.175781 1.8125 0.15625 L 1.28125 0.15625 C 1.3125 -0.207031 1.328125 -0.640625 1.328125 -1.140625 C 1.335938 -1.640625 1.347656 -2.285156 1.359375 -3.078125 C 1.367188 -3.878906 1.375 -4.894531 1.375 -6.125 L 1.90625 -6.125 C 1.96875 -5.09375 2.140625 -4.128906 2.421875 -3.234375 C 2.710938 -2.347656 3.15625 -1.632812 3.75 -1.09375 C 4.351562 -0.550781 5.148438 -0.28125 6.140625 -0.28125 C 6.679688 -0.28125 7.164062 -0.375 7.59375 -0.5625 C 8.019531 -0.757812 8.363281 -1.050781 8.625 -1.4375 C 8.894531 -1.832031 9.03125 -2.316406 9.03125 -2.890625 C 9.03125 -3.535156 8.878906 -4.097656 8.578125 -4.578125 C 8.273438 -5.054688 7.863281 -5.503906 7.34375 -5.921875 C 6.820312 -6.347656 6.21875 -6.78125 5.53125 -7.21875 C 4.800781 -7.695312 4.117188 -8.175781 3.484375 -8.65625 C 2.847656 -9.132812 2.335938 -9.679688 1.953125 -10.296875 C 1.578125 -10.921875 1.390625 -11.660156 1.390625 -12.515625 C 1.390625 -13.492188 1.632812 -14.296875 2.125 -14.921875 C 2.613281 -15.546875 3.257812 -16.007812 4.0625 -16.3125 C 4.863281 -16.625 5.710938 -16.78125 6.609375 -16.78125 Z M 6.609375 -16.78125 "/></g></g><g clip-rule="nonzero" clip-path="url(#700a432ddd)"><path style=" stroke:none;fill-rule:nonzero;fill:#ffffff;fill-opacity:1;" d="M 97.996094 14.457031 C 94.25 14.457031 91.203125 11.410156 91.203125 7.664062 C 91.203125 3.921875 94.25 0.875 97.996094 0.875 C 101.738281 0.875 104.785156 3.921875 104.785156 7.664062 C 104.785156 11.410156 101.738281 14.457031 97.996094 14.457031 Z M 97.996094 1.441406 C 94.5625 1.441406 91.769531 4.234375 91.769531 7.664062 C 91.769531 11.097656 94.5625 13.890625 97.996094 13.890625 C 101.425781 13.890625 104.21875 11.097656 104.21875 7.664062 C 104.21875 4.234375 101.425781 1.441406 97.996094 1.441406 Z M 97.996094 1.441406 "/></g><g style="fill:#ffffff;fill-opacity:1;"><g transform="translate(35.220374, 34.680451)"><path style="stroke:none" d="M 2.859375 0 L 1.75 0 L 1.75 -0.03125 C 1.75 -0.207031 1.816406 -0.300781 1.953125 -0.3125 L 2.09375 -0.328125 L 1.90625 -1.015625 L 1.046875 -1.015625 L 0.84375 -0.34375 L 1.234375 -0.3125 C 1.242188 -0.289062 1.242188 -0.25 1.234375 -0.1875 C 1.203125 -0.0625 1.128906 0 1.015625 0 L 0.0625 0 L 0.0625 -0.03125 C 0.0625 -0.207031 0.128906 -0.300781 0.265625 -0.3125 L 0.453125 -0.328125 L 1.359375 -3.265625 C 1.492188 -3.273438 1.65625 -3.273438 1.84375 -3.265625 L 2.734375 -0.34375 L 3.078125 -0.3125 C 3.085938 -0.289062 3.082031 -0.25 3.0625 -0.1875 C 3.039062 -0.0625 2.972656 0 2.859375 0 Z M 1.140625 -1.34375 L 1.828125 -1.34375 L 1.484375 -2.546875 Z M 1.140625 -1.34375 "/></g></g><g style="fill:#ffffff;fill-opacity:1;"><g transform="translate(38.363393, 34.680451)"><path style="stroke:none" d="M 0.4375 -3.265625 L 1.5625 -3.265625 C 2.664062 -3.265625 3.21875 -2.726562 3.21875 -1.65625 C 3.21875 -1.113281 3.070312 -0.703125 2.78125 -0.421875 C 2.5 -0.140625 2.097656 0 1.578125 0 L 0.203125 0 C 0.191406 -0.0703125 0.195312 -0.140625 0.21875 -0.203125 C 0.25 -0.273438 0.296875 -0.3125 0.359375 -0.3125 L 0.53125 -0.328125 L 0.53125 -2.921875 L 0.203125 -2.953125 C 0.191406 -3.066406 0.203125 -3.144531 0.234375 -3.1875 C 0.273438 -3.238281 0.34375 -3.265625 0.4375 -3.265625 Z M 1.4375 -0.328125 C 1.84375 -0.304688 2.140625 -0.394531 2.328125 -0.59375 C 2.515625 -0.800781 2.609375 -1.144531 2.609375 -1.625 C 2.609375 -2.101562 2.515625 -2.441406 2.328125 -2.640625 C 2.140625 -2.847656 1.828125 -2.945312 1.390625 -2.9375 L 1.125 -2.921875 L 1.125 -0.34375 Z M 1.4375 -0.328125 "/></g></g><g style="fill:#ffffff;fill-opacity:1;"><g transform="translate(41.754042, 34.680451)"><path style="stroke:none" d="M 2.171875 -3.265625 L 3.078125 -3.265625 C 3.078125 -3.265625 3.078125 -3.25 3.078125 -3.21875 C 3.078125 -3.050781 3.003906 -2.957031 2.859375 -2.9375 L 2.75 -2.9375 L 1.75 0 L 1.265625 0 L 0.3125 -2.921875 L 0 -2.953125 C -0.0078125 -2.972656 -0.00390625 -3.015625 0.015625 -3.078125 C 0.0351562 -3.203125 0.101562 -3.265625 0.21875 -3.265625 L 1.3125 -3.265625 C 1.3125 -3.140625 1.296875 -3.0625 1.265625 -3.03125 C 1.222656 -2.976562 1.171875 -2.945312 1.109375 -2.9375 L 0.96875 -2.9375 L 1.625 -0.734375 L 2.328125 -2.921875 L 1.953125 -2.953125 C 1.941406 -2.972656 1.945312 -3.015625 1.96875 -3.078125 C 1.988281 -3.203125 2.054688 -3.265625 2.171875 -3.265625 Z M 2.171875 -3.265625 "/></g></g><g style="fill:#ffffff;fill-opacity:1;"><g transform="translate(44.830391, 34.680451)"><path style="stroke:none" d="M 1.640625 -2.953125 C 1.066406 -2.953125 0.78125 -2.519531 0.78125 -1.65625 C 0.78125 -1.21875 0.847656 -0.882812 0.984375 -0.65625 C 1.128906 -0.425781 1.34375 -0.3125 1.625 -0.3125 C 1.90625 -0.3125 2.117188 -0.421875 2.265625 -0.640625 C 2.421875 -0.867188 2.5 -1.195312 2.5 -1.625 C 2.5 -2.050781 2.425781 -2.378906 2.28125 -2.609375 C 2.132812 -2.835938 1.921875 -2.953125 1.640625 -2.953125 Z M 0.171875 -1.609375 C 0.171875 -2.148438 0.304688 -2.570312 0.578125 -2.875 C 0.847656 -3.175781 1.210938 -3.328125 1.671875 -3.328125 C 2.140625 -3.328125 2.492188 -3.179688 2.734375 -2.890625 C 2.984375 -2.597656 3.109375 -2.179688 3.109375 -1.640625 C 3.109375 -1.109375 2.972656 -0.6875 2.703125 -0.375 C 2.429688 -0.0703125 2.0625 0.078125 1.59375 0.078125 C 1.132812 0.078125 0.78125 -0.0664062 0.53125 -0.359375 C 0.289062 -0.660156 0.171875 -1.078125 0.171875 -1.609375 Z M 0.171875 -1.609375 "/></g></g><g style="fill:#ffffff;fill-opacity:1;"><g transform="translate(48.111511, 34.680451)"><path style="stroke:none" d="M 1.765625 -3.328125 C 2.035156 -3.328125 2.257812 -3.265625 2.4375 -3.140625 C 2.613281 -3.023438 2.703125 -2.882812 2.703125 -2.71875 C 2.703125 -2.582031 2.65625 -2.476562 2.5625 -2.40625 C 2.476562 -2.34375 2.363281 -2.3125 2.21875 -2.3125 C 2.21875 -2.71875 2.046875 -2.921875 1.703125 -2.921875 C 1.410156 -2.921875 1.179688 -2.800781 1.015625 -2.5625 C 0.859375 -2.332031 0.78125 -2.015625 0.78125 -1.609375 C 0.78125 -1.203125 0.859375 -0.890625 1.015625 -0.671875 C 1.171875 -0.460938 1.414062 -0.359375 1.75 -0.359375 C 2.09375 -0.359375 2.394531 -0.453125 2.65625 -0.640625 C 2.695312 -0.609375 2.71875 -0.554688 2.71875 -0.484375 C 2.71875 -0.359375 2.601562 -0.234375 2.375 -0.109375 C 2.15625 0.015625 1.894531 0.078125 1.59375 0.078125 C 1.125 0.078125 0.769531 -0.0664062 0.53125 -0.359375 C 0.289062 -0.648438 0.171875 -1.054688 0.171875 -1.578125 C 0.171875 -2.109375 0.304688 -2.53125 0.578125 -2.84375 C 0.847656 -3.164062 1.242188 -3.328125 1.765625 -3.328125 Z M 1.765625 -3.328125 "/></g></g><g style="fill:#ffffff;fill-opacity:1;"><g transform="translate(50.978326, 34.680451)"><path style="stroke:none" d="M 2.859375 0 L 1.75 0 L 1.75 -0.03125 C 1.75 -0.207031 1.816406 -0.300781 1.953125 -0.3125 L 2.09375 -0.328125 L 1.90625 -1.015625 L 1.046875 -1.015625 L 0.84375 -0.34375 L 1.234375 -0.3125 C 1.242188 -0.289062 1.242188 -0.25 1.234375 -0.1875 C 1.203125 -0.0625 1.128906 0 1.015625 0 L 0.0625 0 L 0.0625 -0.03125 C 0.0625 -0.207031 0.128906 -0.300781 0.265625 -0.3125 L 0.453125 -0.328125 L 1.359375 -3.265625 C 1.492188 -3.273438 1.65625 -3.273438 1.84375 -3.265625 L 2.734375 -0.34375 L 3.078125 -0.3125 C 3.085938 -0.289062 3.082031 -0.25 3.0625 -0.1875 C 3.039062 -0.0625 2.972656 0 2.859375 0 Z M 1.140625 -1.34375 L 1.828125 -1.34375 L 1.484375 -2.546875 Z M 1.140625 -1.34375 "/></g></g><g style="fill:#ffffff;fill-opacity:1;"><g transform="translate(54.121344, 34.680451)"><path style="stroke:none" d="M 0.09375 -3.265625 L 2.9375 -3.265625 L 2.9375 -2.59375 C 2.9375 -2.53125 2.914062 -2.476562 2.875 -2.4375 C 2.832031 -2.40625 2.796875 -2.382812 2.765625 -2.375 C 2.734375 -2.375 2.6875 -2.375 2.625 -2.375 L 2.578125 -2.90625 L 1.8125 -2.90625 L 1.8125 -0.34375 L 2.203125 -0.3125 C 2.222656 -0.101562 2.148438 0 1.984375 0 L 0.8125 0 C 0.8125 0 0.8125 -0.0078125 0.8125 -0.03125 C 0.8125 -0.207031 0.882812 -0.300781 1.03125 -0.3125 L 1.21875 -0.328125 L 1.21875 -2.90625 L 0.453125 -2.90625 L 0.40625 -2.375 C 0.34375 -2.375 0.296875 -2.375 0.265625 -2.375 C 0.234375 -2.382812 0.195312 -2.40625 0.15625 -2.4375 C 0.113281 -2.476562 0.09375 -2.53125 0.09375 -2.59375 Z M 0.09375 -3.265625 "/></g></g><g style="fill:#ffffff;fill-opacity:1;"><g transform="translate(57.150072, 34.680451)"><path style="stroke:none" d="M 2.59375 -0.78125 L 2.59375 0 L 0.1875 0 C 0.1875 -0.207031 0.257812 -0.3125 0.40625 -0.3125 L 0.53125 -0.328125 L 0.53125 -2.921875 L 0.203125 -2.953125 C 0.191406 -2.972656 0.191406 -3.015625 0.203125 -3.078125 C 0.234375 -3.203125 0.300781 -3.265625 0.40625 -3.265625 L 2.5 -3.265625 L 2.5 -2.546875 C 2.5 -2.398438 2.394531 -2.335938 2.1875 -2.359375 L 2.15625 -2.921875 L 1.140625 -2.9375 L 1.140625 -1.75 L 1.984375 -1.859375 C 2.023438 -1.703125 2.023438 -1.539062 1.984375 -1.375 L 1.140625 -1.421875 L 1.140625 -0.34375 L 2.25 -0.375 L 2.28125 -0.96875 C 2.488281 -0.976562 2.59375 -0.914062 2.59375 -0.78125 Z M 2.59375 -0.78125 "/></g></g><g style="fill:#ffffff;fill-opacity:1;"><g transform="translate(59.878785, 34.680451)"><path style="stroke:none" d="M 2.109375 -3.09375 C 2.203125 -3 2.25 -2.882812 2.25 -2.75 C 2.25 -2.613281 2.207031 -2.507812 2.125 -2.4375 C 2.039062 -2.375 1.9375 -2.351562 1.8125 -2.375 C 1.8125 -2.769531 1.632812 -2.96875 1.28125 -2.96875 C 1.125 -2.96875 0.992188 -2.929688 0.890625 -2.859375 C 0.796875 -2.796875 0.75 -2.703125 0.75 -2.578125 C 0.75 -2.484375 0.769531 -2.410156 0.8125 -2.359375 C 0.863281 -2.316406 0.898438 -2.285156 0.921875 -2.265625 C 0.941406 -2.242188 0.984375 -2.210938 1.046875 -2.171875 C 1.109375 -2.140625 1.148438 -2.117188 1.171875 -2.109375 C 1.203125 -2.097656 1.257812 -2.070312 1.34375 -2.03125 C 1.4375 -2 1.492188 -1.976562 1.515625 -1.96875 C 1.835938 -1.820312 2.066406 -1.679688 2.203125 -1.546875 C 2.335938 -1.421875 2.40625 -1.242188 2.40625 -1.015625 C 2.40625 -0.691406 2.289062 -0.425781 2.0625 -0.21875 C 1.832031 -0.0195312 1.53125 0.078125 1.15625 0.078125 C 0.757812 0.078125 0.46875 -0.0078125 0.28125 -0.1875 C 0.175781 -0.289062 0.125 -0.40625 0.125 -0.53125 C 0.125 -0.664062 0.164062 -0.769531 0.25 -0.84375 C 0.332031 -0.925781 0.457031 -0.96875 0.625 -0.96875 C 0.625 -0.726562 0.671875 -0.554688 0.765625 -0.453125 C 0.867188 -0.347656 1.023438 -0.296875 1.234375 -0.296875 C 1.441406 -0.296875 1.601562 -0.34375 1.71875 -0.4375 C 1.84375 -0.53125 1.90625 -0.648438 1.90625 -0.796875 C 1.90625 -0.941406 1.847656 -1.054688 1.734375 -1.140625 C 1.617188 -1.234375 1.460938 -1.320312 1.265625 -1.40625 C 1.078125 -1.488281 0.953125 -1.539062 0.890625 -1.5625 C 0.835938 -1.59375 0.757812 -1.640625 0.65625 -1.703125 C 0.5625 -1.765625 0.492188 -1.828125 0.453125 -1.890625 C 0.328125 -2.035156 0.265625 -2.207031 0.265625 -2.40625 C 0.265625 -2.707031 0.375 -2.9375 0.59375 -3.09375 C 0.8125 -3.25 1.078125 -3.328125 1.390625 -3.328125 C 1.710938 -3.328125 1.953125 -3.25 2.109375 -3.09375 Z M 2.109375 -3.09375 "/></g></g><g style="fill:#ffffff;fill-opacity:1;"><g transform="translate(62.417011, 34.680451)"><path style="stroke:none" d=""/></g></g><g style="fill:#ffffff;fill-opacity:1;"><g transform="translate(63.693268, 34.680451)"><path style="stroke:none" d="M 3.078125 -0.390625 C 3.140625 -0.390625 3.203125 -0.398438 3.265625 -0.421875 C 3.335938 -0.453125 3.390625 -0.488281 3.421875 -0.53125 C 3.460938 -0.488281 3.484375 -0.414062 3.484375 -0.3125 C 3.484375 -0.21875 3.441406 -0.128906 3.359375 -0.046875 C 3.285156 0.0351562 3.164062 0.078125 3 0.078125 C 2.769531 0.078125 2.5 -0.0234375 2.1875 -0.234375 C 1.914062 -0.0234375 1.597656 0.078125 1.234375 0.078125 C 0.878906 0.078125 0.613281 0.00390625 0.4375 -0.140625 C 0.257812 -0.296875 0.171875 -0.5 0.171875 -0.75 C 0.171875 -1.125 0.363281 -1.414062 0.75 -1.625 C 0.519531 -1.9375 0.40625 -2.203125 0.40625 -2.421875 C 0.40625 -2.640625 0.484375 -2.828125 0.640625 -2.984375 C 0.804688 -3.140625 1.019531 -3.21875 1.28125 -3.21875 C 1.539062 -3.21875 1.742188 -3.15625 1.890625 -3.03125 C 2.035156 -2.90625 2.109375 -2.738281 2.109375 -2.53125 C 2.109375 -2.320312 2.039062 -2.140625 1.90625 -1.984375 C 1.769531 -1.828125 1.601562 -1.71875 1.40625 -1.65625 L 1.4375 -1.609375 C 1.695312 -1.304688 1.960938 -1.039062 2.234375 -0.8125 C 2.316406 -0.9375 2.382812 -1.085938 2.4375 -1.265625 L 2.125 -1.296875 C 2.101562 -1.492188 2.171875 -1.59375 2.328125 -1.59375 L 3.140625 -1.59375 L 3.140625 -1.546875 C 3.140625 -1.378906 3.082031 -1.289062 2.96875 -1.28125 L 2.8125 -1.28125 C 2.738281 -1.019531 2.640625 -0.796875 2.515625 -0.609375 C 2.742188 -0.460938 2.929688 -0.390625 3.078125 -0.390625 Z M 1.59375 -2.53125 C 1.59375 -2.664062 1.5625 -2.765625 1.5 -2.828125 C 1.445312 -2.898438 1.375 -2.9375 1.28125 -2.9375 C 1.195312 -2.9375 1.117188 -2.898438 1.046875 -2.828125 C 0.972656 -2.753906 0.9375 -2.65625 0.9375 -2.53125 C 0.9375 -2.351562 1.039062 -2.128906 1.25 -1.859375 C 1.476562 -2.003906 1.59375 -2.226562 1.59375 -2.53125 Z M 1.875 -0.46875 C 1.625 -0.675781 1.316406 -0.984375 0.953125 -1.390625 C 0.796875 -1.234375 0.71875 -1.0625 0.71875 -0.875 C 0.71875 -0.6875 0.773438 -0.546875 0.890625 -0.453125 C 1.003906 -0.359375 1.160156 -0.3125 1.359375 -0.3125 C 1.554688 -0.3125 1.726562 -0.363281 1.875 -0.46875 Z M 1.875 -0.46875 "/></g></g><g style="fill:#ffffff;fill-opacity:1;"><g transform="translate(67.236307, 34.680451)"><path style="stroke:none" d=""/></g></g><g style="fill:#ffffff;fill-opacity:1;"><g transform="translate(68.512565, 34.680451)"><path style="stroke:none" d="M 1.765625 -3.328125 C 2.035156 -3.328125 2.257812 -3.265625 2.4375 -3.140625 C 2.613281 -3.023438 2.703125 -2.882812 2.703125 -2.71875 C 2.703125 -2.582031 2.65625 -2.476562 2.5625 -2.40625 C 2.476562 -2.34375 2.363281 -2.3125 2.21875 -2.3125 C 2.21875 -2.71875 2.046875 -2.921875 1.703125 -2.921875 C 1.410156 -2.921875 1.179688 -2.800781 1.015625 -2.5625 C 0.859375 -2.332031 0.78125 -2.015625 0.78125 -1.609375 C 0.78125 -1.203125 0.859375 -0.890625 1.015625 -0.671875 C 1.171875 -0.460938 1.414062 -0.359375 1.75 -0.359375 C 2.09375 -0.359375 2.394531 -0.453125 2.65625 -0.640625 C 2.695312 -0.609375 2.71875 -0.554688 2.71875 -0.484375 C 2.71875 -0.359375 2.601562 -0.234375 2.375 -0.109375 C 2.15625 0.015625 1.894531 0.078125 1.59375 0.078125 C 1.125 0.078125 0.769531 -0.0664062 0.53125 -0.359375 C 0.289062 -0.648438 0.171875 -1.054688 0.171875 -1.578125 C 0.171875 -2.109375 0.304688 -2.53125 0.578125 -2.84375 C 0.847656 -3.164062 1.242188 -3.328125 1.765625 -3.328125 Z M 1.765625 -3.328125 "/></g></g><g style="fill:#ffffff;fill-opacity:1;"><g transform="translate(71.37938, 34.680451)"><path style="stroke:none" d="M 1.640625 -2.953125 C 1.066406 -2.953125 0.78125 -2.519531 0.78125 -1.65625 C 0.78125 -1.21875 0.847656 -0.882812 0.984375 -0.65625 C 1.128906 -0.425781 1.34375 -0.3125 1.625 -0.3125 C 1.90625 -0.3125 2.117188 -0.421875 2.265625 -0.640625 C 2.421875 -0.867188 2.5 -1.195312 2.5 -1.625 C 2.5 -2.050781 2.425781 -2.378906 2.28125 -2.609375 C 2.132812 -2.835938 1.921875 -2.953125 1.640625 -2.953125 Z M 0.171875 -1.609375 C 0.171875 -2.148438 0.304688 -2.570312 0.578125 -2.875 C 0.847656 -3.175781 1.210938 -3.328125 1.671875 -3.328125 C 2.140625 -3.328125 2.492188 -3.179688 2.734375 -2.890625 C 2.984375 -2.597656 3.109375 -2.179688 3.109375 -1.640625 C 3.109375 -1.109375 2.972656 -0.6875 2.703125 -0.375 C 2.429688 -0.0703125 2.0625 0.078125 1.59375 0.078125 C 1.132812 0.078125 0.78125 -0.0664062 0.53125 -0.359375 C 0.289062 -0.660156 0.171875 -1.078125 0.171875 -1.609375 Z M 0.171875 -1.609375 "/></g></g><g style="fill:#ffffff;fill-opacity:1;"><g transform="translate(74.6605, 34.680451)"><path style="stroke:none" d="M 2.390625 -3.265625 L 3.21875 -3.265625 C 3.21875 -3.265625 3.21875 -3.25 3.21875 -3.21875 C 3.21875 -3.050781 3.148438 -2.957031 3.015625 -2.9375 L 2.875 -2.9375 L 2.875 -0.0625 C 2.78125 -0.0195312 2.660156 0 2.515625 0 L 0.890625 -2.40625 L 0.890625 -0.34375 L 1.234375 -0.3125 C 1.253906 -0.101562 1.1875 0 1.03125 0 L 0.1875 0 L 0.1875 -0.03125 C 0.1875 -0.207031 0.257812 -0.300781 0.40625 -0.3125 L 0.53125 -0.328125 L 0.53125 -2.921875 L 0.203125 -2.953125 C 0.191406 -2.972656 0.191406 -3.015625 0.203125 -3.078125 C 0.234375 -3.203125 0.300781 -3.265625 0.40625 -3.265625 L 1.03125 -3.265625 L 2.515625 -1.046875 L 2.515625 -2.921875 L 2.1875 -2.953125 C 2.164062 -3.160156 2.234375 -3.265625 2.390625 -3.265625 Z M 2.390625 -3.265625 "/></g></g><g style="fill:#ffffff;fill-opacity:1;"><g transform="translate(77.965431, 34.680451)"><path style="stroke:none" d="M 2.109375 -3.09375 C 2.203125 -3 2.25 -2.882812 2.25 -2.75 C 2.25 -2.613281 2.207031 -2.507812 2.125 -2.4375 C 2.039062 -2.375 1.9375 -2.351562 1.8125 -2.375 C 1.8125 -2.769531 1.632812 -2.96875 1.28125 -2.96875 C 1.125 -2.96875 0.992188 -2.929688 0.890625 -2.859375 C 0.796875 -2.796875 0.75 -2.703125 0.75 -2.578125 C 0.75 -2.484375 0.769531 -2.410156 0.8125 -2.359375 C 0.863281 -2.316406 0.898438 -2.285156 0.921875 -2.265625 C 0.941406 -2.242188 0.984375 -2.210938 1.046875 -2.171875 C 1.109375 -2.140625 1.148438 -2.117188 1.171875 -2.109375 C 1.203125 -2.097656 1.257812 -2.070312 1.34375 -2.03125 C 1.4375 -2 1.492188 -1.976562 1.515625 -1.96875 C 1.835938 -1.820312 2.066406 -1.679688 2.203125 -1.546875 C 2.335938 -1.421875 2.40625 -1.242188 2.40625 -1.015625 C 2.40625 -0.691406 2.289062 -0.425781 2.0625 -0.21875 C 1.832031 -0.0195312 1.53125 0.078125 1.15625 0.078125 C 0.757812 0.078125 0.46875 -0.0078125 0.28125 -0.1875 C 0.175781 -0.289062 0.125 -0.40625 0.125 -0.53125 C 0.125 -0.664062 0.164062 -0.769531 0.25 -0.84375 C 0.332031 -0.925781 0.457031 -0.96875 0.625 -0.96875 C 0.625 -0.726562 0.671875 -0.554688 0.765625 -0.453125 C 0.867188 -0.347656 1.023438 -0.296875 1.234375 -0.296875 C 1.441406 -0.296875 1.601562 -0.34375 1.71875 -0.4375 C 1.84375 -0.53125 1.90625 -0.648438 1.90625 -0.796875 C 1.90625 -0.941406 1.847656 -1.054688 1.734375 -1.140625 C 1.617188 -1.234375 1.460938 -1.320312 1.265625 -1.40625 C 1.078125 -1.488281 0.953125 -1.539062 0.890625 -1.5625 C 0.835938 -1.59375 0.757812 -1.640625 0.65625 -1.703125 C 0.5625 -1.765625 0.492188 -1.828125 0.453125 -1.890625 C 0.328125 -2.035156 0.265625 -2.207031 0.265625 -2.40625 C 0.265625 -2.707031 0.375 -2.9375 0.59375 -3.09375 C 0.8125 -3.25 1.078125 -3.328125 1.390625 -3.328125 C 1.710938 -3.328125 1.953125 -3.25 2.109375 -3.09375 Z M 2.109375 -3.09375 "/></g></g><g style="fill:#ffffff;fill-opacity:1;"><g transform="translate(80.503658, 34.680451)"><path style="stroke:none" d="M 2.28125 -3.265625 L 3.140625 -3.265625 C 3.140625 -3.265625 3.140625 -3.25 3.140625 -3.21875 C 3.140625 -3.050781 3.070312 -2.957031 2.9375 -2.9375 L 2.796875 -2.9375 L 2.796875 -1.375 C 2.796875 -0.875 2.691406 -0.503906 2.484375 -0.265625 C 2.285156 -0.0351562 1.988281 0.078125 1.59375 0.078125 C 1.195312 0.078125 0.894531 -0.03125 0.6875 -0.25 C 0.488281 -0.476562 0.390625 -0.859375 0.390625 -1.390625 L 0.390625 -2.921875 L 0.046875 -2.953125 C 0.0351562 -2.972656 0.0390625 -3.015625 0.0625 -3.078125 C 0.0820312 -3.203125 0.148438 -3.265625 0.265625 -3.265625 L 1.34375 -3.265625 L 1.34375 -3.21875 C 1.34375 -3.050781 1.269531 -2.957031 1.125 -2.9375 L 0.984375 -2.9375 L 0.984375 -1.3125 C 0.984375 -0.957031 1.03125 -0.703125 1.125 -0.546875 C 1.226562 -0.390625 1.40625 -0.3125 1.65625 -0.3125 C 2.15625 -0.3125 2.40625 -0.625 2.40625 -1.25 L 2.40625 -2.921875 L 2.0625 -2.953125 C 2.050781 -3.160156 2.125 -3.265625 2.28125 -3.265625 Z M 2.28125 -3.265625 "/></g></g><g style="fill:#ffffff;fill-opacity:1;"><g transform="translate(83.689535, 34.680451)"><path style="stroke:none" d="M 2.546875 -0.84375 L 2.546875 0 L 0.1875 0 L 0.1875 -0.03125 C 0.1875 -0.207031 0.257812 -0.300781 0.40625 -0.3125 L 0.53125 -0.328125 L 0.53125 -2.921875 L 0.203125 -2.953125 C 0.191406 -2.972656 0.191406 -3.015625 0.203125 -3.078125 C 0.234375 -3.203125 0.304688 -3.265625 0.421875 -3.265625 L 1.59375 -3.265625 L 1.59375 -3.21875 C 1.59375 -3.09375 1.554688 -3.007812 1.484375 -2.96875 C 1.453125 -2.945312 1.414062 -2.9375 1.375 -2.9375 L 1.140625 -2.9375 L 1.140625 -0.34375 L 2.15625 -0.375 L 2.234375 -1.03125 C 2.441406 -1.050781 2.546875 -0.988281 2.546875 -0.84375 Z M 2.546875 -0.84375 "/></g></g><g style="fill:#ffffff;fill-opacity:1;"><g transform="translate(86.351575, 34.680451)"><path style="stroke:none" d="M 0.09375 -3.265625 L 2.9375 -3.265625 L 2.9375 -2.59375 C 2.9375 -2.53125 2.914062 -2.476562 2.875 -2.4375 C 2.832031 -2.40625 2.796875 -2.382812 2.765625 -2.375 C 2.734375 -2.375 2.6875 -2.375 2.625 -2.375 L 2.578125 -2.90625 L 1.8125 -2.90625 L 1.8125 -0.34375 L 2.203125 -0.3125 C 2.222656 -0.101562 2.148438 0 1.984375 0 L 0.8125 0 C 0.8125 0 0.8125 -0.0078125 0.8125 -0.03125 C 0.8125 -0.207031 0.882812 -0.300781 1.03125 -0.3125 L 1.21875 -0.328125 L 1.21875 -2.90625 L 0.453125 -2.90625 L 0.40625 -2.375 C 0.34375 -2.375 0.296875 -2.375 0.265625 -2.375 C 0.234375 -2.382812 0.195312 -2.40625 0.15625 -2.4375 C 0.113281 -2.476562 0.09375 -2.53125 0.09375 -2.59375 Z M 0.09375 -3.265625 "/></g></g><g style="fill:#ffffff;fill-opacity:1;"><g transform="translate(89.380299, 34.680451)"><path style="stroke:none" d="M 2.859375 0 L 1.75 0 L 1.75 -0.03125 C 1.75 -0.207031 1.816406 -0.300781 1.953125 -0.3125 L 2.09375 -0.328125 L 1.90625 -1.015625 L 1.046875 -1.015625 L 0.84375 -0.34375 L 1.234375 -0.3125 C 1.242188 -0.289062 1.242188 -0.25 1.234375 -0.1875 C 1.203125 -0.0625 1.128906 0 1.015625 0 L 0.0625 0 L 0.0625 -0.03125 C 0.0625 -0.207031 0.128906 -0.300781 0.265625 -0.3125 L 0.453125 -0.328125 L 1.359375 -3.265625 C 1.492188 -3.273438 1.65625 -3.273438 1.84375 -3.265625 L 2.734375 -0.34375 L 3.078125 -0.3125 C 3.085938 -0.289062 3.082031 -0.25 3.0625 -0.1875 C 3.039062 -0.0625 2.972656 0 2.859375 0 Z M 1.140625 -1.34375 L 1.828125 -1.34375 L 1.484375 -2.546875 Z M 1.140625 -1.34375 "/></g></g><g style="fill:#ffffff;fill-opacity:1;"><g transform="translate(92.523324, 34.680451)"><path style="stroke:none" d="M 2.390625 -3.265625 L 3.21875 -3.265625 C 3.21875 -3.265625 3.21875 -3.25 3.21875 -3.21875 C 3.21875 -3.050781 3.148438 -2.957031 3.015625 -2.9375 L 2.875 -2.9375 L 2.875 -0.0625 C 2.78125 -0.0195312 2.660156 0 2.515625 0 L 0.890625 -2.40625 L 0.890625 -0.34375 L 1.234375 -0.3125 C 1.253906 -0.101562 1.1875 0 1.03125 0 L 0.1875 0 L 0.1875 -0.03125 C 0.1875 -0.207031 0.257812 -0.300781 0.40625 -0.3125 L 0.53125 -0.328125 L 0.53125 -2.921875 L 0.203125 -2.953125 C 0.191406 -2.972656 0.191406 -3.015625 0.203125 -3.078125 C 0.234375 -3.203125 0.300781 -3.265625 0.40625 -3.265625 L 1.03125 -3.265625 L 2.515625 -1.046875 L 2.515625 -2.921875 L 2.1875 -2.953125 C 2.164062 -3.160156 2.234375 -3.265625 2.390625 -3.265625 Z M 2.390625 -3.265625 "/></g></g><g style="fill:#ffffff;fill-opacity:1;"><g transform="translate(95.828252, 34.680451)"><path style="stroke:none" d="M 0.09375 -3.265625 L 2.9375 -3.265625 L 2.9375 -2.59375 C 2.9375 -2.53125 2.914062 -2.476562 2.875 -2.4375 C 2.832031 -2.40625 2.796875 -2.382812 2.765625 -2.375 C 2.734375 -2.375 2.6875 -2.375 2.625 -2.375 L 2.578125 -2.90625 L 1.8125 -2.90625 L 1.8125 -0.34375 L 2.203125 -0.3125 C 2.222656 -0.101562 2.148438 0 1.984375 0 L 0.8125 0 C 0.8125 0 0.8125 -0.0078125 0.8125 -0.03125 C 0.8125 -0.207031 0.882812 -0.300781 1.03125 -0.3125 L 1.21875 -0.328125 L 1.21875 -2.90625 L 0.453125 -2.90625 L 0.40625 -2.375 C 0.34375 -2.375 0.296875 -2.375 0.265625 -2.375 C 0.234375 -2.382812 0.195312 -2.40625 0.15625 -2.4375 C 0.113281 -2.476562 0.09375 -2.53125 0.09375 -2.59375 Z M 0.09375 -3.265625 "/></g></g><g style="fill:#ffffff;fill-opacity:1;"><g transform="translate(98.856983, 34.680451)"><path style="stroke:none" d="M 2.109375 -3.09375 C 2.203125 -3 2.25 -2.882812 2.25 -2.75 C 2.25 -2.613281 2.207031 -2.507812 2.125 -2.4375 C 2.039062 -2.375 1.9375 -2.351562 1.8125 -2.375 C 1.8125 -2.769531 1.632812 -2.96875 1.28125 -2.96875 C 1.125 -2.96875 0.992188 -2.929688 0.890625 -2.859375 C 0.796875 -2.796875 0.75 -2.703125 0.75 -2.578125 C 0.75 -2.484375 0.769531 -2.410156 0.8125 -2.359375 C 0.863281 -2.316406 0.898438 -2.285156 0.921875 -2.265625 C 0.941406 -2.242188 0.984375 -2.210938 1.046875 -2.171875 C 1.109375 -2.140625 1.148438 -2.117188 1.171875 -2.109375 C 1.203125 -2.097656 1.257812 -2.070312 1.34375 -2.03125 C 1.4375 -2 1.492188 -1.976562 1.515625 -1.96875 C 1.835938 -1.820312 2.066406 -1.679688 2.203125 -1.546875 C 2.335938 -1.421875 2.40625 -1.242188 2.40625 -1.015625 C 2.40625 -0.691406 2.289062 -0.425781 2.0625 -0.21875 C 1.832031 -0.0195312 1.53125 0.078125 1.15625 0.078125 C 0.757812 0.078125 0.46875 -0.0078125 0.28125 -0.1875 C 0.175781 -0.289062 0.125 -0.40625 0.125 -0.53125 C 0.125 -0.664062 0.164062 -0.769531 0.25 -0.84375 C 0.332031 -0.925781 0.457031 -0.96875 0.625 -0.96875 C 0.625 -0.726562 0.671875 -0.554688 0.765625 -0.453125 C 0.867188 -0.347656 1.023438 -0.296875 1.234375 -0.296875 C 1.441406 -0.296875 1.601562 -0.34375 1.71875 -0.4375 C 1.84375 -0.53125 1.90625 -0.648438 1.90625 -0.796875 C 1.90625 -0.941406 1.847656 -1.054688 1.734375 -1.140625 C 1.617188 -1.234375 1.460938 -1.320312 1.265625 -1.40625 C 1.078125 -1.488281 0.953125 -1.539062 0.890625 -1.5625 C 0.835938 -1.59375 0.757812 -1.640625 0.65625 -1.703125 C 0.5625 -1.765625 0.492188 -1.828125 0.453125 -1.890625 C 0.328125 -2.035156 0.265625 -2.207031 0.265625 -2.40625 C 0.265625 -2.707031 0.375 -2.9375 0.59375 -3.09375 C 0.8125 -3.25 1.078125 -3.328125 1.390625 -3.328125 C 1.710938 -3.328125 1.953125 -3.25 2.109375 -3.09375 Z M 2.109375 -3.09375 "/></g></g><g clip-rule="nonzero" clip-path="url(#cefb535337)"><path style="fill-rule:evenodd;fill:#ffffff;fill-opacity:1;stroke-width:0.596;stroke-linecap:round;stroke-linejoin:round;stroke:#000000;stroke-opacity:1;stroke-miterlimit:4;" d="M 74.420841 126.088541 C 74.395008 126.088541 74.252924 126.540625 74.136674 127.096043 C 74.007507 127.638543 73.826673 128.426461 73.72334 128.826879 C 73.322923 130.544798 73.167922 131.229382 73.000006 131.952716 C 72.961255 132.107717 72.870839 132.521051 72.793339 132.869801 C 72.702922 133.218552 72.612505 133.618969 72.573755 133.773969 C 72.405838 134.574804 72.212088 135.349805 72.160421 135.543555 C 72.070004 135.788972 72.070004 136.008556 72.134588 135.982722 C 72.173338 135.956889 72.380005 135.866472 72.599588 135.763139 C 72.819172 135.659805 73.180839 135.478972 73.400423 135.388555 C 73.620006 135.285221 74.433758 134.910637 75.208759 134.54897 C 75.98376 134.187303 76.797511 133.812719 77.017095 133.722302 C 77.236678 133.618969 77.598346 133.451052 77.817929 133.347718 C 78.024596 133.257302 78.218346 133.192718 78.24418 133.205635 C 78.270013 133.231468 78.16668 133.683552 78.024596 134.213136 C 77.869596 134.74272 77.430429 136.396056 77.030011 137.881475 C 76.629594 139.366894 76.25501 140.761896 76.190427 140.968563 C 76.06126 141.433564 75.053758 145.166486 73.775007 149.919826 C 73.271256 151.805662 72.702922 153.872332 72.535005 154.505249 C 72.367088 155.12525 72.225004 155.667751 72.225004 155.706501 C 72.225004 155.784001 73.245423 155.809835 77.017095 155.835668 L 79.303348 155.848585 L 79.342098 155.616084 C 79.367931 155.499834 79.432515 155.060667 79.497098 154.66025 C 79.548765 154.246916 79.626265 153.730248 79.665015 153.497748 C 79.703765 153.265248 80.039599 151.069411 80.401266 148.615241 C 80.77585 146.173987 81.124601 143.848984 81.176267 143.461483 C 81.382934 142.118148 81.563768 140.968563 81.667101 140.258145 C 81.718768 139.857728 81.822102 139.250644 81.873768 138.901893 C 81.925435 138.553143 82.145019 137.041891 82.377519 135.556472 C 82.597103 134.058136 82.790853 132.843968 82.80377 132.856884 C 82.829603 132.882718 83.565854 137.687725 83.875855 139.780228 C 83.914605 140.025645 84.005022 140.658562 84.082522 141.188147 C 84.172938 141.704814 84.263355 142.337732 84.302105 142.583149 C 84.340855 142.841482 84.405439 143.345233 84.470022 143.7069 C 84.521689 144.068567 84.94794 146.923155 85.41294 150.023159 C 85.890858 153.136081 86.278358 155.719418 86.304192 155.771085 C 86.330025 155.861501 86.859609 155.861501 89.85628 155.822751 C 91.793783 155.796918 93.382535 155.771085 93.395452 155.758168 C 93.408369 155.745251 93.395452 155.641918 93.356702 155.525667 C 93.317952 155.409417 92.917535 153.949832 92.465451 152.270663 C 92.013367 150.591494 91.367532 148.18899 91.031698 146.936072 C 90.695865 145.683153 89.985447 143.061066 89.455863 141.110646 C 87.996277 135.672722 87.44086 133.644802 87.40211 133.554385 C 87.350443 133.412302 87.466693 133.438135 88.202944 133.786886 C 90.075864 134.652304 90.437531 134.820221 90.889615 135.026888 C 91.612949 135.349805 92.1942 135.621055 92.646284 135.840639 C 92.891701 135.956889 93.124202 136.060222 93.162952 136.060222 C 93.240452 136.060222 93.214618 135.879389 93.046701 135.246471 C 92.930451 134.807304 92.723784 133.903136 92.439617 132.650217 C 92.400867 132.495217 92.31045 132.107717 92.23295 131.771883 C 92.15545 131.448966 92.052117 130.971048 91.987533 130.712715 C 91.716283 129.52438 91.561283 128.865629 91.290032 127.703127 C 91.199615 127.30271 91.083365 126.798959 91.031698 126.605209 C 90.992948 126.398542 90.915448 126.230625 90.889615 126.230625 C 90.799198 126.230625 90.592531 126.346875 88.022111 127.80646 C 86.045858 128.930212 85.684191 129.136879 85.012523 129.511463 C 84.831689 129.614796 84.366689 129.87313 83.979188 130.092714 C 83.591688 130.312297 83.15252 130.557714 83.010437 130.648131 L 82.72627 130.790215 L 82.377519 130.583548 C 82.183769 130.480214 81.886685 130.312297 81.731685 130.234797 C 81.576685 130.14438 81.318351 129.98938 81.137517 129.898963 C 80.9696 129.79563 79.820015 129.149796 78.580014 128.439378 C 76.074177 127.018543 75.802926 126.863542 75.247509 126.566459 C 75.027925 126.450208 74.769591 126.295208 74.679175 126.217708 C 74.575841 126.153125 74.459591 126.088541 74.420841 126.088541 Z M 74.420841 126.088541 " transform="matrix(0.302419,0,0,0.302419,72.978105,-35.541716)"/></g></g></svg>